<svg width="393" height="293" viewBox="0 0 393 293" fill="none" xmlns="http://www.w3.org/2000/svg">
<g clipPath="url(#clip0_127_403)">
<path d="M393 257.489H0V257.685H393V257.489Z" fill="#EBEBEB"/>
<path d="M252.715 268.45H226.683V268.647H252.715V268.45Z" fill="#EBEBEB"/>
<path d="M326.795 266.319H319.965V266.516H326.795V266.319Z" fill="#EBEBEB"/>
<path d="M311.72 262.844H257.549V263.04H311.72V262.844Z" fill="#EBEBEB"/>
<path d="M176.96 267.483H153.144V267.68H176.96V267.483Z" fill="#EBEBEB"/>
<path d="M146.149 267.483H131.042V267.68H146.149V267.483Z" fill="#EBEBEB"/>
<path d="M78.0496 264.165H41.2334V264.361H78.0496V264.165Z" fill="#EBEBEB"/>
<path d="M186.282 222.418H34.5134C33.3245 222.416 32.1849 221.942 31.3449 221.1C30.505 220.258 30.0332 219.117 30.0332 217.928V4.49002C30.0436 3.30738 30.5199 2.17658 31.3587 1.34324C32.1976 0.509901 33.3312 0.0413326 34.5134 0.0393066H186.282C187.472 0.0393066 188.614 0.512362 189.456 1.35441C190.297 2.19645 190.77 3.33851 190.77 4.52934V217.928C190.77 219.118 190.297 220.261 189.456 221.103C188.614 221.945 187.472 222.418 186.282 222.418ZM34.5134 0.196576C33.3766 0.198659 32.287 0.651921 31.4839 1.45687C30.6808 2.26182 30.2297 3.35269 30.2297 4.49002V217.928C30.2297 219.065 30.6808 220.156 31.4839 220.961C32.287 221.766 33.3766 222.219 34.5134 222.221H186.282C187.42 222.219 188.51 221.766 189.314 220.961C190.119 220.157 190.572 219.066 190.574 217.928V4.49002C190.572 3.35197 190.119 2.26112 189.314 1.45639C188.51 0.651665 187.42 0.198655 186.282 0.196576H34.5134Z" fill="#EBEBEB"/>
<path d="M356.302 222.418H204.525C203.335 222.416 202.195 221.942 201.354 221.1C200.513 220.259 200.039 219.118 200.037 217.928V4.49002C200.05 3.30666 200.528 2.17587 201.368 1.34275C202.208 0.509626 203.342 0.0413105 204.525 0.0393066H356.302C357.483 0.0433992 358.614 0.512882 359.451 1.346C360.289 2.17911 360.764 3.30873 360.774 4.49002V217.928C360.774 219.116 360.303 220.255 359.465 221.097C358.627 221.939 357.489 222.413 356.302 222.418ZM204.525 0.196576C203.388 0.198655 202.297 0.651665 201.493 1.45639C200.688 2.26112 200.236 3.35197 200.234 4.49002V217.928C200.236 219.066 200.688 220.157 201.493 220.961C202.297 221.766 203.388 222.219 204.525 222.221H356.302C357.439 222.219 358.53 221.766 359.334 220.961C360.138 220.157 360.591 219.066 360.593 217.928V4.49002C360.591 3.35197 360.138 2.26112 359.334 1.45639C358.53 0.651665 357.439 0.198655 356.302 0.196576H204.525Z" fill="#EBEBEB"/>
<path d="M45.069 141.385L178.917 141.385L178.917 18.1018L45.069 18.1018L45.069 141.385Z" fill="#E6E6E6"/>
<path d="M41.8858 141.385L177.534 141.385L177.534 18.1018L41.8858 18.1018L41.8858 141.385Z" fill="#F5F5F5"/>
<path d="M171.835 135.22V24.2666L47.5924 24.2666V135.22H171.835Z" fill="#FAFAFA"/>
<path d="M156.485 135.212L114.701 24.2588H97.1104L138.894 135.212H156.485Z" fill="white"/>
<path d="M133.903 135.212L92.1269 24.2588H80.0146L121.791 135.212H133.903Z" fill="white"/>
<path d="M96.4502 135.212V24.2588H89.6434V135.212H96.4502Z" fill="#E6E6E6"/>
<path d="M134.335 135.212V24.2588H127.529V135.212H134.335Z" fill="#E6E6E6"/>
<path d="M95.2319 139.12L95.2319 19.6746H86.6331V139.12H95.2319Z" fill="#F5F5F5"/>
<path d="M133.109 139.128V19.6824H124.51V139.128H133.109Z" fill="#F5F5F5"/>
<path d="M48.1978 135.212L48.1978 24.2588H47.5925L47.5925 135.212H48.1978Z" fill="#E6E6E6"/>
<path d="M350.462 19.2183H212.762V115.577H350.462V19.2183Z" fill="#EBEBEB"/>
<path d="M350.454 115.577H351.617V19.2184H350.454V115.577Z" fill="#E0E0E0"/>
<path d="M345.636 110.757V24.0466L217.588 24.0466V110.757L345.636 110.757Z" fill="white"/>
<path d="M218.547 110.757V24.0466H217.588V110.757H218.547Z" fill="#E0E0E0"/>
<path d="M330.395 33.3962H299.112V77.3687H330.395V33.3962Z" fill="#F5F5F5"/>
<path d="M258.9 41.5505H227.618V85.523H258.9V41.5505Z" fill="#F5F5F5"/>
<path d="M308.749 52.4885H277.466V96.4609H308.749V52.4885Z" fill="#EBEBEB"/>
<path d="M265.849 54.4153H253.634V66.6351H265.849V54.4153Z" fill="#F5F5F5"/>
<path d="M262.304 79.4053H250.089V91.6251H262.304V79.4053Z" fill="#F0F0F0"/>
<path d="M321.553 251.835C321.553 250.716 321.884 249.623 322.506 248.693C323.127 247.763 324.01 247.038 325.043 246.611C326.076 246.183 327.213 246.072 328.309 246.29C329.406 246.509 330.413 247.048 331.203 247.84C331.993 248.631 332.531 249.64 332.748 250.737C332.965 251.834 332.852 252.971 332.423 254.004C331.994 255.037 331.268 255.919 330.338 256.54C329.408 257.16 328.314 257.49 327.196 257.489C325.699 257.487 324.263 256.89 323.205 255.83C322.147 254.77 321.553 253.333 321.553 251.835Z" fill="#E0E0E0"/>
<path d="M331.079 251.835C331.079 250.717 331.411 249.624 332.032 248.694C332.652 247.764 333.535 247.039 334.568 246.612C335.6 246.184 336.737 246.072 337.833 246.29C338.929 246.508 339.936 247.046 340.727 247.837C341.517 248.628 342.055 249.635 342.273 250.732C342.491 251.829 342.379 252.966 341.952 253.999C341.524 255.032 340.8 255.915 339.87 256.536C338.941 257.157 337.848 257.489 336.73 257.489C335.232 257.489 333.794 256.893 332.734 255.833C331.675 254.773 331.079 253.334 331.079 251.835Z" fill="#E0E0E0"/>
<path d="M175.019 251.835C175.019 250.717 175.35 249.624 175.971 248.694C176.592 247.764 177.475 247.039 178.507 246.612C179.54 246.184 180.676 246.072 181.772 246.29C182.869 246.508 183.876 247.046 184.666 247.837C185.456 248.628 185.995 249.635 186.213 250.732C186.431 251.829 186.319 252.966 185.891 253.999C185.463 255.032 184.739 255.915 183.81 256.536C182.88 257.157 181.788 257.489 180.67 257.489C179.171 257.489 177.734 256.893 176.674 255.833C175.614 254.773 175.019 253.334 175.019 251.835Z" fill="#E0E0E0"/>
<path d="M184.553 251.835C184.553 250.717 184.884 249.624 185.505 248.695C186.125 247.765 187.007 247.04 188.04 246.612C189.072 246.184 190.208 246.072 191.304 246.289C192.4 246.507 193.407 247.044 194.197 247.834C194.988 248.624 195.527 249.631 195.746 250.727C195.965 251.823 195.854 252.96 195.427 253.993C195.001 255.026 194.278 255.91 193.35 256.532C192.421 257.154 191.329 257.487 190.212 257.489C189.469 257.49 188.733 257.344 188.047 257.061C187.36 256.777 186.736 256.361 186.211 255.836C185.685 255.31 185.268 254.687 184.984 254C184.699 253.314 184.553 252.578 184.553 251.835Z" fill="#E0E0E0"/>
<path d="M331.323 252.614H344.692V132.145H331.323V252.614Z" fill="#EBEBEB"/>
<path d="M331.331 132.146H173.863V252.614H331.331V132.146Z" fill="#F5F5F5"/>
<path d="M326.206 137.083H178.98V247.667H326.206V137.083Z" fill="#EBEBEB"/>
<path d="M324.115 183.596H181.079V245.631H324.115V183.596Z" fill="#F5F5F5"/>
<path d="M324.115 139.411H181.079V182.023H324.115V139.411Z" fill="#F5F5F5"/>
<path d="M207.103 184.65H298.09C298.368 184.648 298.634 184.536 298.83 184.338C299.026 184.141 299.136 183.874 299.136 183.596C299.134 183.319 299.023 183.054 298.827 182.859C298.632 182.663 298.367 182.552 298.09 182.55H207.103C206.826 182.552 206.562 182.663 206.366 182.859C206.17 183.054 206.06 183.319 206.058 183.596C206.058 183.874 206.167 184.141 206.363 184.338C206.559 184.536 206.825 184.648 207.103 184.65Z" fill="#EBEBEB"/>
<path d="M207.103 140.465H298.09C298.367 140.463 298.632 140.352 298.827 140.156C299.023 139.961 299.134 139.696 299.136 139.419C299.136 139.141 299.026 138.874 298.83 138.677C298.634 138.479 298.368 138.368 298.09 138.365H207.103C206.825 138.368 206.559 138.479 206.363 138.677C206.167 138.874 206.058 139.141 206.058 139.419C206.06 139.696 206.17 139.961 206.366 140.156C206.562 140.352 206.826 140.463 207.103 140.465Z" fill="#EBEBEB"/>
<path d="M119.574 195.973H50.2334V257.481H119.574V195.973Z" fill="#F5F5F5"/>
<path d="M119.574 257.489H146.526V195.981H119.574V257.489Z" fill="#EBEBEB"/>
<path d="M121.075 185.184H46.814V195.973H121.075V185.184Z" fill="#EBEBEB"/>
<path d="M121.068 195.973H149.938V185.184H121.068V195.973Z" fill="#E0E0E0"/>
<path d="M196.5 293C280.667 293 348.898 289.015 348.898 284.099C348.898 279.183 280.667 275.197 196.5 275.197C112.333 275.197 44.1025 279.183 44.1025 284.099C44.1025 289.015 112.333 293 196.5 293Z" fill="#F5F5F5"/>
<path d="M321.23 103.75H320.444V113.123H321.23V103.75Z" fill="#19216F"/>
<path d="M321.23 76.9045H320.444V97.1922H321.23V76.9045Z" fill="#19216F"/>
<path d="M309.817 60.5171H121.358C118.254 60.5171 115.738 63.0343 115.738 66.1395V167.562C115.738 170.667 118.254 173.185 121.358 173.185H309.817C312.921 173.185 315.437 170.667 315.437 167.562V66.1395C315.437 63.0343 312.921 60.5171 309.817 60.5171Z" fill="#E0E0E0"/>
<path d="M312.687 57.647H124.227C121.124 57.647 118.607 60.1642 118.607 63.2693V164.692C118.607 167.797 121.124 170.314 124.227 170.314H312.687C315.79 170.314 318.306 167.797 318.306 164.692V63.2693C318.306 60.1642 315.79 57.647 312.687 57.647Z" fill="white"/>
<path d="M312.694 170.676H124.227C122.633 170.674 121.105 170.04 119.978 168.912C118.851 167.784 118.216 166.255 118.214 164.661V63.2221C118.216 61.6273 118.851 60.0984 119.978 58.9708C121.105 57.8431 122.633 57.2086 124.227 57.2065H312.694C314.288 57.2086 315.817 57.8431 316.944 58.9708C318.071 60.0984 318.705 61.6273 318.707 63.2221V164.661C318.705 166.255 318.071 167.784 316.944 168.912C315.817 170.04 314.288 170.674 312.694 170.676ZM124.227 58.0401C122.842 58.0421 121.513 58.5938 120.534 59.574C119.554 60.5542 119.002 61.883 119 63.2693V164.708C119.002 166.094 119.554 167.423 120.534 168.403C121.513 169.383 122.842 169.935 124.227 169.937H312.694C314.08 169.935 315.408 169.383 316.388 168.403C317.368 167.423 317.919 166.094 317.921 164.708V63.2693C317.919 61.883 317.368 60.5542 316.388 59.574C315.408 58.5938 314.08 58.0421 312.694 58.0401H124.227Z" fill="#19216F"/>
<path d="M206.561 106.581H133.926C133.15 106.579 132.406 106.269 131.858 105.719C131.31 105.169 131.002 104.425 131.002 103.648V93.6142C131.002 92.8377 131.31 92.0928 131.858 91.543C132.406 90.9932 133.15 90.6832 133.926 90.6812H206.561C207.337 90.6832 208.081 90.9932 208.629 91.543C209.177 92.0928 209.485 92.8377 209.485 93.6142V103.624C209.488 104.011 209.414 104.394 209.269 104.752C209.123 105.11 208.909 105.436 208.637 105.711C208.365 105.986 208.042 106.204 207.686 106.353C207.329 106.503 206.947 106.58 206.561 106.581ZM133.926 91.4911C133.359 91.4932 132.815 91.7202 132.414 92.1226C132.013 92.525 131.788 93.0698 131.788 93.6378V103.648C131.787 103.93 131.842 104.208 131.949 104.469C132.056 104.729 132.213 104.966 132.412 105.165C132.61 105.365 132.846 105.523 133.106 105.631C133.366 105.739 133.645 105.795 133.926 105.795H206.561C206.842 105.795 207.121 105.739 207.381 105.631C207.64 105.523 207.877 105.365 208.075 105.165C208.274 104.966 208.431 104.729 208.538 104.469C208.645 104.208 208.7 103.93 208.699 103.648V93.6142C208.699 93.0462 208.474 92.5014 208.073 92.099C207.672 91.6967 207.128 91.4696 206.561 91.4675L133.926 91.4911Z" fill="#E0E0E0"/>
<path d="M244.823 127.805H133.926C133.152 127.803 132.409 127.494 131.861 126.946C131.313 126.397 131.005 125.655 131.002 124.879V114.846C131.002 114.069 131.31 113.324 131.858 112.774C132.406 112.225 133.15 111.915 133.926 111.913H244.823C245.599 111.915 246.343 112.225 246.891 112.774C247.439 113.324 247.747 114.069 247.747 114.846V124.864C247.748 125.249 247.673 125.63 247.527 125.987C247.38 126.343 247.165 126.667 246.894 126.94C246.622 127.213 246.3 127.43 245.944 127.578C245.589 127.727 245.208 127.804 244.823 127.805ZM133.926 112.715C133.359 112.717 132.815 112.944 132.414 113.346C132.013 113.749 131.788 114.293 131.788 114.861V124.879C131.788 125.447 132.014 125.991 132.415 126.392C132.816 126.793 133.359 127.018 133.926 127.018H244.823C245.39 127.018 245.934 126.793 246.335 126.392C246.736 125.991 246.961 125.447 246.961 124.879V114.846C246.961 114.278 246.736 113.733 246.335 113.33C245.935 112.928 245.391 112.701 244.823 112.699L133.926 112.715Z" fill="#E0E0E0"/>
<path d="M134.768 123.024C134.663 123.024 134.563 122.982 134.49 122.909C134.416 122.835 134.375 122.735 134.375 122.63V117.126C134.375 117.022 134.416 116.922 134.49 116.848C134.563 116.774 134.663 116.733 134.768 116.733C134.872 116.733 134.972 116.774 135.045 116.848C135.119 116.922 135.161 117.022 135.161 117.126V122.63C135.161 122.735 135.119 122.835 135.045 122.909C134.972 122.982 134.872 123.024 134.768 123.024Z" fill="#E0E0E0"/>
<path d="M293.626 106.581H220.991C220.215 106.579 219.471 106.269 218.923 105.719C218.375 105.169 218.067 104.425 218.067 103.648V93.6142C218.067 92.8377 218.375 92.0928 218.923 91.543C219.471 90.9932 220.215 90.6832 220.991 90.6812H293.626C294.402 90.6832 295.145 90.9932 295.694 91.543C296.242 92.0928 296.549 92.8377 296.549 93.6142V103.624C296.553 104.011 296.479 104.394 296.334 104.752C296.188 105.11 295.974 105.436 295.702 105.711C295.43 105.986 295.107 106.204 294.751 106.353C294.394 106.503 294.012 106.58 293.626 106.581ZM220.991 91.4911C220.424 91.4932 219.88 91.7202 219.479 92.1226C219.078 92.525 218.853 93.0698 218.853 93.6378V103.648C218.852 103.93 218.907 104.208 219.014 104.469C219.121 104.729 219.278 104.966 219.477 105.165C219.675 105.365 219.911 105.523 220.171 105.631C220.431 105.739 220.71 105.795 220.991 105.795H293.626C293.907 105.795 294.186 105.739 294.446 105.631C294.705 105.523 294.941 105.365 295.14 105.165C295.339 104.966 295.496 104.729 295.603 104.469C295.71 104.208 295.765 103.93 295.763 103.648V93.6142C295.763 93.0462 295.538 92.5014 295.138 92.099C294.737 91.6967 294.193 91.4696 293.626 91.4675L220.991 91.4911Z" fill="#E0E0E0"/>
<path opacity="0.2" d="M181.181 76.9044H134.626C133.77 76.9024 132.949 76.5612 132.344 75.9555C131.739 75.3499 131.398 74.5291 131.396 73.6726C131.398 72.816 131.739 71.9952 132.344 71.3896C132.949 70.7839 133.77 70.4428 134.626 70.4407H181.181C182.037 70.4428 182.857 70.7839 183.463 71.3896C184.068 71.9952 184.409 72.816 184.411 73.6726C184.409 74.5291 184.068 75.3499 183.463 75.9555C182.857 76.5612 182.037 76.9024 181.181 76.9044Z" fill="#19216F"/>
<path opacity="0.2" d="M193.992 139.222H143.547C143.206 139.22 142.879 139.084 142.638 138.842C142.396 138.601 142.26 138.274 142.258 137.933C142.26 137.591 142.396 137.264 142.638 137.023C142.879 136.782 143.206 136.645 143.547 136.643H193.992C194.333 136.645 194.659 136.782 194.899 137.024C195.139 137.265 195.274 137.592 195.274 137.933C195.274 138.273 195.139 138.6 194.899 138.842C194.659 139.083 194.333 139.22 193.992 139.222Z" fill="#19216F"/>
<path d="M133.997 140.559C135.434 140.559 136.599 139.394 136.599 137.956C136.599 136.519 135.434 135.354 133.997 135.354C132.56 135.354 131.396 136.519 131.396 137.956C131.396 139.394 132.56 140.559 133.997 140.559Z" fill="#19216F"/>
<path d="M221.832 101.8C221.728 101.8 221.628 101.759 221.555 101.685C221.481 101.611 221.439 101.511 221.439 101.407V95.9027C221.439 95.7984 221.481 95.6984 221.555 95.6247C221.628 95.5509 221.728 95.5095 221.832 95.5095C221.937 95.5095 222.037 95.5509 222.11 95.6247C222.184 95.6984 222.225 95.7984 222.225 95.9027V101.407C222.225 101.511 222.184 101.611 222.11 101.685C222.037 101.759 221.937 101.8 221.832 101.8Z" fill="#E0E0E0"/>
<path d="M134.768 101.8C134.663 101.8 134.563 101.759 134.49 101.685C134.416 101.611 134.375 101.511 134.375 101.407V95.9027C134.375 95.7984 134.416 95.6984 134.49 95.6247C134.563 95.5509 134.663 95.5095 134.768 95.5095C134.872 95.5095 134.972 95.5509 135.045 95.6247C135.119 95.6984 135.161 95.7984 135.161 95.9027V101.407C135.161 101.511 135.119 101.611 135.045 101.685C134.972 101.759 134.872 101.8 134.768 101.8Z" fill="#E0E0E0"/>
<path d="M261.926 148.588H235.045C232.675 148.588 230.753 150.51 230.753 152.881V157.741C230.753 160.112 232.675 162.034 235.045 162.034H261.926C264.296 162.034 266.218 160.112 266.218 157.741V152.881C266.218 150.51 264.296 148.588 261.926 148.588Z" fill="#19216F"/>
<path opacity="0.2" d="M304.842 148.588H277.961C275.591 148.588 273.669 150.51 273.669 152.881V157.741C273.669 160.112 275.591 162.034 277.961 162.034H304.842C307.212 162.034 309.134 160.112 309.134 157.741V152.881C309.134 150.51 307.212 148.588 304.842 148.588Z" fill="#19216F"/>
<path d="M61.3548 29.0475C55.5542 28.1746 54.2337 33.451 48.1265 33.2466C48.4808 34.2415 49.0305 35.1555 49.7432 35.9347C50.4559 36.7139 51.3173 37.3426 52.2765 37.7838C52.2765 37.7838 47.4269 41.3145 48.5037 46.5751C52.308 42.2738 57.4091 46.3628 62.9583 46.1898C74.4968 45.8359 78.6783 40.4888 74.6618 35.9044C78.3796 31.1863 68.2323 28.6858 68.4603 25.1865C67.3049 25.7291 67.3442 27.9623 67.3442 27.9623C64.5214 28.0561 61.7575 27.1418 59.547 25.3831C59.3977 27.5613 61.3548 29.0475 61.3548 29.0475Z" fill="#263238"/>
<path d="M72.4849 35.7078C72.9699 35.8292 73.4754 35.8437 73.9666 35.7503C74.4577 35.6569 74.9227 35.4579 75.3294 35.167C75.7361 34.8761 76.0747 34.5002 76.3218 34.0654C76.569 33.6306 76.7187 33.1473 76.7607 32.6489C78.5999 36.5335 75.7625 38.6487 72.4849 35.7078Z" fill="#263238"/>
<path d="M77.9318 272.508L72.4612 275.661L64.4126 263.504L69.8832 260.351L77.9318 272.508Z" fill="#FF8B7B"/>
<path d="M71.8088 275.197L77.9553 271.658C78.0564 271.597 78.1769 271.577 78.2922 271.602C78.4076 271.627 78.5092 271.695 78.5763 271.792L81.7203 276.447C81.8693 276.701 81.9116 277.003 81.8379 277.287C81.7642 277.572 81.5805 277.816 81.3273 277.965C79.1658 279.16 78.0654 279.624 75.3694 281.181C73.7031 282.14 67.698 285.357 63.265 285.018C60.679 284.814 60.624 282.455 61.7401 282.195C66.747 281.039 70.2447 278.169 71.0857 276.078C71.225 275.714 71.4788 275.404 71.8088 275.197Z" fill="#263238"/>
<path opacity="0.2" d="M69.8832 260.351L64.4126 263.504L68.5627 269.771L74.0332 266.618L69.8832 260.351Z" fill="black"/>
<path d="M39.4964 119.288C39.4964 119.288 26.2601 171.376 24.8768 189.367C23.3676 209.073 65.2379 269.087 65.2379 269.087L75.4558 263.732C75.4558 263.732 56.0888 229.502 43.1513 190.791C49.4393 170.542 61.9367 121.003 61.9367 121.003L39.4964 119.288Z" fill="#19216F"/>
<g opacity="0.3">
<path d="M39.4964 119.288C39.4964 119.288 26.2601 171.376 24.8768 189.367C23.3676 209.073 65.2379 269.087 65.2379 269.087L75.4558 263.732C75.4558 263.732 56.0888 229.502 43.1513 190.791C49.4393 170.542 61.9367 121.003 61.9367 121.003L39.4964 119.288Z" fill="white"/>
</g>
<path opacity="0.4" d="M51.2234 139.765C46.0358 148.863 44.2831 170.613 45.5878 182.471C49.2191 169.819 53.8015 152.456 57.1892 139.411C54.9255 137.65 52.6618 137.193 51.2234 139.765Z" fill="#19216F"/>
<path d="M75.8252 263.693L64.8605 269.441L61.6929 265.761L74.6855 259.981L75.8252 263.693Z" fill="#19216F"/>
<path d="M70.4256 277.265C70.9076 276.965 71.3579 276.618 71.7697 276.227C71.7827 276.203 71.7896 276.176 71.7896 276.148C71.7896 276.121 71.7827 276.094 71.7697 276.07C71.7576 276.045 71.74 276.024 71.7181 276.008C71.6963 275.991 71.6708 275.98 71.6439 275.975C71.3924 275.975 69.2309 275.802 68.72 276.447C68.66 276.519 68.6203 276.606 68.6051 276.699C68.5899 276.792 68.5997 276.887 68.6335 276.974C68.6641 277.114 68.7322 277.243 68.8306 277.347C68.9289 277.451 69.0537 277.526 69.1916 277.564C69.6261 277.628 70.0687 277.521 70.4256 277.265ZM71.3138 276.243C70.4413 277.029 69.7418 277.391 69.3016 277.281C69.2128 277.253 69.1332 277.202 69.0709 277.133C69.0087 277.063 68.9662 276.979 68.9479 276.888C68.9259 276.848 68.9143 276.803 68.9143 276.758C68.9143 276.712 68.9259 276.668 68.9479 276.628C69.2623 276.282 70.4413 276.211 71.3138 276.243Z" fill="#19216F"/>
<path d="M71.738 276.251L71.7931 276.204C71.8048 276.182 71.8109 276.158 71.8109 276.133C71.8109 276.108 71.8048 276.084 71.7931 276.062C71.7931 275.991 71.0071 274.356 70.111 274.151C70.0008 274.12 69.8846 274.115 69.7723 274.139C69.66 274.162 69.5551 274.212 69.4665 274.285C69.3589 274.349 69.2767 274.448 69.2337 274.565C69.1907 274.683 69.1897 274.812 69.2307 274.93C69.4508 275.598 70.9285 276.259 71.6595 276.267L71.738 276.251ZM69.7102 274.474C69.76 274.442 69.8159 274.422 69.8741 274.414C69.9324 274.406 69.9917 274.41 70.0482 274.426C70.5591 274.552 71.125 275.417 71.4158 275.944C70.7084 275.818 69.6552 275.268 69.5137 274.835C69.5137 274.749 69.5137 274.639 69.6473 274.513L69.7102 274.474Z" fill="#19216F"/>
<path d="M48.8575 74.6004L43.1669 84.3904C42.2394 86.0181 41.3198 87.638 40.463 89.2343C40.0386 90.0206 39.677 90.807 39.2683 91.5933C38.8596 92.3796 38.5845 93.111 38.443 93.5041L38.1365 90.5947C38.2151 90.9485 38.2622 91.3181 38.333 91.6641C38.4037 92.0101 38.443 92.3561 38.5295 92.6549C38.6159 92.9537 38.6552 93.2918 38.726 93.6064L38.8281 94.0624C38.8281 94.1411 38.8281 94.2118 38.8281 94.2826C38.8281 94.3534 38.8281 94.3691 38.8281 94.3927C38.8281 94.4163 38.8281 94.4713 38.6709 94.4713C39.3349 94.5756 39.9302 94.9395 40.326 95.4829C40.7218 96.0263 40.8856 96.7048 40.7813 97.369C40.6771 98.0332 40.3134 98.6289 39.7702 99.0248C39.227 99.4208 38.5489 99.5846 37.8849 99.4804C37.5627 99.4804 37.4998 99.4804 37.3347 99.4804H36.9417C36.6955 99.4804 36.4597 99.4489 36.2343 99.386C35.7974 99.3036 35.3687 99.1825 34.9532 99.0243C34.171 98.7248 33.4332 98.32 32.7602 97.8212C32.133 97.3587 31.556 96.8316 31.0389 96.2485C30.7874 95.9575 30.5594 95.6666 30.3236 95.3756C30.0878 95.0847 29.9149 94.778 29.7105 94.4713C29.4919 94.1458 29.3404 93.78 29.2648 93.3952C29.1892 93.0103 29.1911 92.6143 29.2704 92.2303L29.404 91.5619C29.6618 90.3497 30.0113 89.1589 30.4494 87.9997C30.8188 86.9696 31.2354 86.0103 31.6441 85.0667C32.4301 83.1873 33.334 81.3866 34.2458 79.6251C35.1575 77.8637 36.0929 76.1259 37.0596 74.4117C38.0264 72.6974 39.0246 71.0225 40.1093 69.3319C40.8269 68.1988 41.961 67.3934 43.2669 67.0893C44.5728 66.7853 45.9459 67.007 47.0898 67.7067C48.2338 68.4064 49.0569 69.5279 49.3818 70.8293C49.7066 72.1308 49.507 73.5078 48.8261 74.6633L48.8575 74.6004Z" fill="#FF8B7B"/>
<path d="M45.6666 65.1091C52.0725 64.6295 55.2087 69.1588 52.1669 76.6055C50.3342 80.8592 48.2502 85 45.926 89.0062C45.423 89.9026 44.9514 90.7047 44.5741 91.3652L31.7466 81.3629C34.2382 75.4574 41.3908 65.4394 45.6666 65.1091Z" fill="#19216F"/>
<path opacity="0.3" d="M44.275 72.3829C48.5194 69.6307 42.6166 82.5424 40.18 87.9132L36.415 84.9644C37.429 81.1742 41.0131 74.5139 44.275 72.3829Z" fill="black"/>
<path d="M62.2118 281.433L55.9316 280.953L56.1124 266.335L62.3926 266.815L62.2118 281.433Z" fill="#FF8B7B"/>
<path d="M55.6488 280.198L62.7228 280.741C62.7816 280.743 62.8395 280.756 62.8931 280.781C62.9466 280.805 62.9949 280.84 63.035 280.883C63.0752 280.926 63.1064 280.977 63.127 281.032C63.1476 281.087 63.1572 281.146 63.1551 281.205V286.819C63.1454 286.968 63.1055 287.114 63.0379 287.247C62.9702 287.38 62.8761 287.498 62.7614 287.594C62.6467 287.689 62.5137 287.761 62.3706 287.803C62.2275 287.846 62.0772 287.859 61.9289 287.841C59.4766 287.613 58.3054 287.377 55.2086 287.142C53.2986 287 45.1714 286.575 42.5304 286.355C39.8895 286.135 40.1724 283.556 41.2885 283.406C46.3661 282.73 52.6777 281.739 54.5405 280.481C54.8691 280.268 55.2583 280.169 55.6488 280.198Z" fill="#263238"/>
<path opacity="0.2" d="M62.3925 266.815L56.1124 266.335L56.0181 273.876L62.2982 274.348L62.3925 266.815Z" fill="black"/>
<path d="M51.758 120.224C51.758 120.224 47.8987 167.9 47.6865 185.97C47.4586 205.771 53.4479 271.855 53.4479 271.855L64.9471 272.736C64.9471 272.736 64.0903 208.641 66.1182 189.179C68.319 168.057 73.0822 121.852 73.0822 121.852L51.758 120.224Z" fill="#19216F"/>
<path opacity="0.3" d="M51.758 120.224C51.758 120.224 47.8987 167.9 47.6865 185.97C47.4586 205.771 53.4479 271.855 53.4479 271.855L64.9471 272.736C64.9471 272.736 64.0903 208.641 66.1182 189.179C68.319 168.057 73.0822 121.852 73.0822 121.852L51.758 120.224Z" fill="white"/>
<path d="M65.4109 272.767L52.9843 271.824L52.5991 267.396L66.2677 269.126L65.4109 272.767Z" fill="#19216F"/>
<path d="M53.3536 281.126C53.9161 281.157 54.4802 281.125 55.0357 281.032C55.0633 281.027 55.0888 281.014 55.1095 280.995C55.1301 280.976 55.145 280.951 55.1524 280.924C55.1597 280.897 55.1593 280.869 55.1512 280.842C55.1431 280.815 55.1276 280.791 55.1064 280.772C54.9178 280.615 53.22 279.263 52.434 279.506C52.3448 279.534 52.2641 279.584 52.1995 279.651C52.1349 279.719 52.0884 279.801 52.0646 279.892C52.0137 280.022 51.9985 280.164 52.0206 280.302C52.0427 280.44 52.1013 280.57 52.1904 280.678C52.5097 280.966 52.9239 281.125 53.3536 281.126ZM54.6505 280.788C53.5108 280.922 52.6855 280.827 52.4104 280.513C52.3536 280.437 52.3179 280.348 52.3068 280.254C52.2958 280.16 52.3098 280.065 52.3475 279.978C52.3569 279.934 52.3778 279.893 52.4082 279.86C52.4386 279.827 52.4774 279.803 52.5205 279.789C52.9449 279.656 53.951 280.269 54.6505 280.765V280.788Z" fill="#19216F"/>
<path d="M55.0199 281.032C55.0429 281.039 55.0676 281.039 55.0906 281.032C55.1143 281.024 55.1352 281.009 55.1506 280.99C55.166 280.97 55.1752 280.947 55.1771 280.922C55.1771 280.843 55.4522 279.05 54.8627 278.39C54.785 278.306 54.6898 278.24 54.5839 278.196C54.478 278.153 54.3639 278.133 54.2496 278.138C54.1252 278.133 54.0027 278.17 53.9016 278.242C53.8004 278.315 53.7265 278.42 53.6915 278.539C53.5029 279.215 54.3439 280.599 54.9491 281.016C54.971 281.027 54.9953 281.033 55.0199 281.032ZM54.3203 278.405C54.4389 278.416 54.5487 278.473 54.6269 278.563C54.9311 279.193 55.0274 279.903 54.902 280.591C54.3911 280.088 53.833 279.019 53.9588 278.602C53.9588 278.515 54.0374 278.421 54.2496 278.405H54.3203Z" fill="#19216F"/>
<path d="M39.4964 119.288L73.0979 121.852C73.5381 118.872 73.5145 109.05 74.8821 96.6888C75.8308 87.499 77.5744 78.4088 80.0933 69.5205C80.2898 68.8521 80.4863 68.1995 80.6985 67.5311C80.6985 67.5311 79.0165 67.0514 76.6035 66.5088C74.5992 66.0606 72.0761 65.5573 69.6002 65.2507C64.8668 64.6179 60.1011 64.2556 55.3264 64.1655C53.1178 64.1655 50.9484 64.4014 49.2114 64.598C47.0027 64.8732 45.6822 65.1485 45.6822 65.1485C45.6822 65.1485 38.341 83.1007 39.4964 119.288Z" fill="#19216F"/>
<path d="M40.9819 93.7638C41.6445 92.7912 42.491 91.9577 43.4736 91.3104C44.1259 91.0019 44.7538 90.6444 45.3521 90.241C45.413 90.2 45.4837 90.1762 45.5569 90.172C45.6302 90.1679 45.7032 90.1835 45.7683 90.2173C45.8334 90.2511 45.8882 90.3017 45.927 90.364C45.9658 90.4263 45.9871 90.4979 45.9888 90.5712C45.9888 91.0588 45.7608 91.853 44.4639 92.9303C44.2517 94.5029 41.8465 96.0049 41.8465 96.0049L40.9819 93.7638Z" fill="#FF8B7B"/>
<path opacity="0.3" d="M45.8236 97.8997L52.8033 98.4344L49.0226 84.2959L42.043 83.7612L45.8236 97.8997Z" fill="black"/>
<path d="M45.3519 97.8685L52.3316 98.3954L48.551 84.2569L41.5713 83.7222L45.3519 97.8685Z" fill="white"/>
<path opacity="0.3" d="M74.8663 96.6497C75.815 87.4625 77.5586 78.375 80.0775 69.4893C77.8453 69.1197 73.9939 69.049 73.1057 72.6347C72.1546 76.4721 72.3904 85.7509 74.8663 96.6497Z" fill="black"/>
<path d="M83.0408 72.3829C83.3945 73.476 83.6696 74.4274 83.9447 75.4576C84.2198 76.4877 84.4556 77.4785 84.7307 78.4928C85.1709 80.5295 85.5796 82.5818 85.8626 84.6814C86.1785 86.7998 86.3779 88.934 86.4599 91.0744C86.5572 93.3382 86.4573 95.6062 86.1612 97.8527V98.1122C86.034 99.0552 85.5971 99.9293 84.9194 100.597C84.4489 101.055 83.9204 101.449 83.3474 101.769C82.9286 102.004 82.4924 102.206 82.0426 102.374C81.3416 102.635 80.618 102.829 79.8811 102.956C78.6882 103.153 77.4823 103.261 76.2734 103.278C74.1242 103.295 71.9763 103.169 69.8439 102.901C67.7793 102.649 65.7436 102.322 63.7366 101.918C61.7245 101.501 59.7595 101.053 57.7552 100.463C57.1709 100.287 56.6688 99.9071 56.3394 99.3931C56.0099 98.879 55.8747 98.2641 55.9581 97.6592C56.0415 97.0542 56.338 96.499 56.7943 96.0933C57.2506 95.6876 57.8366 95.4583 58.4469 95.4464H58.494L64.3576 95.3835C66.3069 95.3835 68.2404 95.3128 70.1426 95.2184C72.0447 95.124 73.9153 94.9825 75.6446 94.7387C76.4214 94.6344 77.1889 94.4687 77.9397 94.2433C78.1782 94.1769 78.4078 94.0818 78.6235 93.9603C78.6942 93.9603 78.6864 93.9052 78.6235 93.9131C78.4858 93.9726 78.3624 94.0611 78.2619 94.1726L76.9808 96.9169C77.0042 95.1989 76.9175 93.4811 76.7214 91.7742C76.517 89.9892 76.2105 88.157 75.8725 86.3327C75.5345 84.5084 75.0865 82.6526 74.6778 80.8283C74.4656 79.9083 74.2298 78.9882 74.0018 78.0761L73.3101 75.4025L73.263 75.2452C72.9975 73.9853 73.2171 72.6715 73.8779 71.5666C74.5387 70.4616 75.592 69.6469 76.8273 69.2853C78.0626 68.9237 79.3888 69.0418 80.5407 69.6161C81.6927 70.1904 82.5856 71.1785 83.0408 72.3829Z" fill="#FF8B7B"/>
<path d="M80.6827 67.4919C74.5362 65.5654 70.8577 69.4971 71.8795 77.51C72.6165 82.0884 73.7177 86.6006 75.1729 91.0036L88.7157 86.836C87.5367 80.5138 84.7935 68.7815 80.6827 67.4919Z" fill="#19216F"/>
<path d="M55.9868 64.1263C60.2076 63.4579 61.1115 60.9416 61.025 58.1028C61.008 57.3892 60.9449 56.6774 60.8364 55.9719L66.3384 52.0401L70.3706 49.1621C68.9951 53.6915 67.2266 61.9795 70.1269 65.29C66.2499 68.0406 62.0665 70.3311 57.6609 72.1155C57.4058 72.2111 57.134 72.2545 56.8618 72.2431C56.5896 72.2317 56.3224 72.1658 56.0761 72.0492C55.8299 71.9326 55.6095 71.7677 55.4281 71.5644C55.2466 71.361 55.1079 71.1233 55.02 70.8652C53.6681 66.6032 55.9868 64.1263 55.9868 64.1263Z" fill="#FF8B7B"/>
<path opacity="0.2" d="M60.8364 55.9718C60.945 56.6774 61.008 57.3892 61.0251 58.1028C62.9901 57.859 66.0397 56.3493 66.472 54.1711C66.517 53.4553 66.4721 52.7368 66.3384 52.0322L60.8364 55.9718Z" fill="black"/>
<path d="M70.6929 39.8518C70.9916 46.1425 71.4789 49.7676 68.7122 53.3848C64.5464 58.8263 56.6157 57.0177 54.4699 51.0257C52.5363 45.6471 52.3791 36.266 58.1641 32.9634C59.4054 32.2245 60.8181 31.8228 62.2623 31.7981C63.7065 31.7734 65.1321 32.1265 66.3979 32.8224C67.6637 33.5184 68.7259 34.5331 69.4793 35.766C70.2326 36.9989 70.651 38.4073 70.6929 39.8518Z" fill="#FF8B7B"/>
<path d="M68.0755 36.0538C66.307 39.2542 67.6511 41.5582 67.6511 41.5582L67.9812 40.0563C67.9812 40.0563 70.2135 42.4153 69.5532 45.1439C73.4675 43.0994 73.8841 35.0079 68.0755 36.0538Z" fill="#263238"/>
<path d="M71.3372 36.9973C64.2632 38.57 60.2781 37.8387 59.0205 37.5635C61.9838 37.3669 62.7619 35.9908 62.7619 35.9908C62.7619 35.9908 55.6879 37.7208 54.2495 37.1703C55.68 32.8533 58.9655 30.8796 65.678 31.1312C72.3904 31.3828 71.3372 36.9973 71.3372 36.9973Z" fill="#263238"/>
<path d="M73.7107 45.6945C73.0683 47.0996 71.9566 48.2369 70.5667 48.9106C68.7903 49.697 67.91 48.085 68.4052 46.1663C68.8611 44.4363 70.3309 41.9358 72.1151 41.9436C73.8993 41.9515 74.5281 43.9173 73.7107 45.6945Z" fill="#FF8B7B"/>
<path d="M61.5279 42.8715C61.575 43.3748 61.3549 43.823 61.0248 43.8702C60.6947 43.9173 60.3882 43.5399 60.3331 43.0288C60.2781 42.5176 60.4982 42.0773 60.8283 42.0301C61.1584 41.9829 61.4728 42.3604 61.5279 42.8715Z" fill="#263238"/>
<path d="M55.8452 43.642C55.9002 44.1531 55.6801 44.5934 55.35 44.6406C55.0199 44.6878 54.7133 44.3104 54.6583 43.8071C54.6033 43.3038 54.8234 42.8556 55.1535 42.8084C55.4836 42.7612 55.8059 43.1387 55.8452 43.642Z" fill="#263238"/>
<path d="M57.6767 43.6499C57.2441 45.2815 56.5937 46.8473 55.7432 48.3051C56.1175 48.5052 56.5314 48.6203 56.9553 48.6421C57.3792 48.6638 57.8026 48.5917 58.1955 48.4309L57.6767 43.6499Z" fill="#FF5652"/>
<path d="M60.3961 49.516C60.9663 49.3748 61.5019 49.1194 61.9707 48.7653C62.4395 48.4112 62.8316 47.9657 63.1235 47.4558C63.1383 47.4189 63.1393 47.3779 63.1263 47.3403C63.1133 47.3028 63.0872 47.2712 63.0528 47.2513C63.0173 47.2351 62.9768 47.2334 62.9401 47.2466C62.9034 47.2599 62.8733 47.2869 62.8563 47.3221C62.5325 47.8725 62.0859 48.3405 61.5514 48.6897C61.017 49.0389 60.4091 49.2598 59.7752 49.3351C59.7533 49.33 59.7305 49.3299 59.7085 49.3348C59.6865 49.3397 59.666 49.3495 59.6484 49.3635C59.6307 49.3775 59.6165 49.3953 59.6067 49.4156C59.5969 49.4359 59.5918 49.4581 59.5918 49.4806C59.5918 49.5031 59.5969 49.5253 59.6067 49.5456C59.6165 49.5659 59.6307 49.5837 59.6484 49.5977C59.666 49.6117 59.6865 49.6215 59.7085 49.6264C59.7305 49.6313 59.7533 49.6312 59.7752 49.6261C59.9846 49.6048 60.1921 49.568 60.3961 49.516Z" fill="#263238"/>
<path d="M63.0841 40.7798C63.1326 40.7705 63.1767 40.7456 63.2099 40.709C63.2379 40.6813 63.2602 40.6482 63.2754 40.6117C63.2906 40.5753 63.2984 40.5362 63.2984 40.4967C63.2984 40.4572 63.2906 40.4181 63.2754 40.3817C63.2602 40.3453 63.2379 40.3122 63.2099 40.2844C62.8934 39.9357 62.497 39.6691 62.0548 39.5075C61.6126 39.3458 61.1378 39.294 60.6711 39.3565C60.6324 39.3648 60.5957 39.3806 60.5631 39.403C60.5305 39.4255 60.5027 39.4541 60.4811 39.4874C60.4376 39.5545 60.4226 39.6361 60.4393 39.7143C60.4559 39.7925 60.503 39.8609 60.57 39.9044C60.6371 39.9479 60.7187 39.963 60.7969 39.9463C61.1628 39.8973 61.5351 39.9384 61.8816 40.0658C62.2281 40.1932 62.5383 40.4032 62.7855 40.6776C62.8213 40.7201 62.868 40.7521 62.9206 40.7701C62.9733 40.7881 63.0298 40.7915 63.0841 40.7798Z" fill="#263238"/>
<path d="M53.1886 42.0063C53.2363 41.9959 53.2804 41.9729 53.3163 41.9397C53.3523 41.9065 53.3787 41.8644 53.3929 41.8176C53.5084 41.4555 53.7062 41.125 53.9708 40.8522C54.2353 40.5793 54.5595 40.3715 54.9178 40.2449C54.9949 40.2241 55.0606 40.1734 55.1004 40.1041C55.1402 40.0348 55.1508 39.9525 55.13 39.8753C55.1091 39.7982 55.0585 39.7325 54.9892 39.6926C54.92 39.6528 54.8377 39.6422 54.7606 39.663C54.3083 39.8149 53.8982 40.0714 53.5637 40.4116C53.2291 40.7518 52.9794 41.1662 52.8349 41.621C52.8096 41.6951 52.8144 41.7761 52.8482 41.8467C52.882 41.9173 52.9421 41.9718 53.0156 41.9985C53.0707 42.0208 53.1317 42.0236 53.1886 42.0063Z" fill="#263238"/>
<path d="M59.7831 96.0361L53.3301 92.0415L53.9274 99.9679C53.9274 99.9679 59.3194 101.902 60.0661 99.04L59.7831 96.0361Z" fill="#FF8B7B"/>
<path d="M55.3812 93.3234C54.7023 92.3505 53.8399 91.5198 52.8424 90.8778C52.1182 90.4794 51.4316 90.0162 50.791 89.4939C50.7301 89.4529 50.6593 89.4291 50.5861 89.425C50.5129 89.4208 50.4399 89.4364 50.3748 89.4702C50.3097 89.504 50.2548 89.5547 50.216 89.6169C50.1773 89.6792 50.1559 89.7508 50.1543 89.8241C50.1543 90.3195 50.5709 91.3968 51.8835 92.4977C52.1193 94.0704 54.5638 95.5723 54.5638 95.5723L55.3812 93.3234Z" fill="#FF8B7B"/>
<path d="M47.757 92.7257L48.3229 97.6876C48.3497 97.8992 48.4387 98.0982 48.5787 98.2592C48.7186 98.4202 48.9031 98.536 49.1089 98.5919L53.9428 99.9837L53.3455 92.1203L48.9439 91.5541C48.784 91.5308 48.6209 91.545 48.4674 91.5954C48.3139 91.6458 48.1742 91.7311 48.0592 91.8446C47.9442 91.9581 47.857 92.0968 47.8046 92.2497C47.7522 92.4025 47.7359 92.5655 47.757 92.7257Z" fill="#FF8B7B"/>
<path d="M37.9007 95.0139L43.4891 92.1909L43.3476 99.1737C43.3476 99.1737 37.5548 100.904 37.209 97.9627L37.9007 95.0139Z" fill="#FF8B7B"/>
<path d="M45.9336 92.4504V97.9548C45.9347 98.1063 45.8849 98.2537 45.7922 98.3734C45.6996 98.4932 45.5695 98.5784 45.4227 98.6154L43.3477 99.1579L43.4891 92.1752L45.0611 91.7663C45.165 91.7381 45.274 91.7346 45.3795 91.756C45.485 91.7774 45.5841 91.8231 45.6688 91.8895C45.7535 91.956 45.8216 92.0413 45.8675 92.1386C45.9135 92.236 45.9361 92.3428 45.9336 92.4504Z" fill="#FF8B7B"/>
<path d="M344.378 191.31C349.652 196.563 348.882 201.894 345.125 205.676C341.368 209.459 336.039 210.237 330.765 204.984C325.491 199.732 322.268 190.421 326.049 186.647C329.829 182.872 339.096 186.057 344.378 191.31Z" fill="#19216F"/>
<path d="M363.046 225.783C356.522 226.931 352.592 223.841 351.256 219.422C349.92 215.003 351.61 210.921 358.126 209.773C364.641 208.625 373.5 210.835 374.867 215.278C376.235 219.721 369.562 224.627 363.046 225.783Z" fill="#19216F"/>
<path d="M328.627 236.1C333.343 237.673 336.565 235.793 338.059 232.672C339.552 229.55 338.719 226.381 334.019 224.808C329.318 223.235 322.527 223.935 321.042 227.065C319.556 230.195 323.926 234.551 328.627 236.1Z" fill="#19216F"/>
<path d="M366.693 191.011C362.173 197.192 356.6 197.703 352.136 195.029C347.671 192.356 346.005 187.52 350.525 181.339C355.044 175.158 364.02 169.976 368.485 172.642C372.949 175.308 371.204 184.83 366.693 191.011Z" fill="#19216F"/>
<path d="M340.385 272.068C340.183 272.068 339.989 271.991 339.843 271.851C339.696 271.712 339.609 271.522 339.599 271.321C337.178 224.722 354.824 188.526 355.005 188.165C355.098 187.978 355.261 187.836 355.458 187.77C355.656 187.703 355.871 187.718 356.058 187.811C356.245 187.904 356.387 188.067 356.453 188.264C356.519 188.462 356.504 188.678 356.412 188.865C356.231 189.226 338.774 225.076 341.163 271.242C341.174 271.449 341.102 271.653 340.964 271.807C340.826 271.962 340.632 272.056 340.424 272.068H340.385Z" fill="#263238"/>
<path d="M346.917 213.925H346.838C346.631 213.905 346.44 213.804 346.307 213.643C346.175 213.482 346.111 213.276 346.131 213.068C346.131 212.966 347.003 202.846 340.047 199.488C339.86 199.398 339.716 199.237 339.647 199.041C339.578 198.845 339.589 198.63 339.678 198.442C339.722 198.348 339.784 198.263 339.861 198.193C339.938 198.122 340.028 198.068 340.126 198.033C340.224 197.998 340.328 197.983 340.432 197.988C340.536 197.994 340.637 198.02 340.731 198.065C348.678 201.878 347.734 212.761 347.695 213.218C347.676 213.411 347.586 213.59 347.442 213.721C347.298 213.851 347.111 213.924 346.917 213.925Z" fill="#263238"/>
<path d="M341.218 243.806C341.02 243.807 340.829 243.733 340.684 243.599C340.538 243.464 340.448 243.28 340.432 243.083C340.432 242.988 339.528 233.324 331.055 230.643C330.957 230.612 330.865 230.562 330.786 230.495C330.707 230.429 330.641 230.348 330.594 230.256C330.546 230.164 330.517 230.064 330.507 229.961C330.498 229.858 330.51 229.755 330.541 229.656C330.572 229.557 330.622 229.466 330.688 229.387C330.754 229.307 330.836 229.242 330.927 229.194C331.019 229.146 331.119 229.117 331.222 229.108C331.325 229.099 331.428 229.11 331.527 229.141C341.022 232.153 341.989 242.847 341.996 242.957C342.014 243.164 341.948 243.37 341.814 243.53C341.68 243.689 341.489 243.788 341.281 243.806H341.218Z" fill="#263238"/>
<path d="M342.916 231.791H342.728C342.525 231.741 342.351 231.612 342.244 231.434C342.136 231.255 342.104 231.042 342.154 230.839C345.832 215.899 357.434 216.261 357.551 216.261C357.655 216.265 357.756 216.29 357.85 216.334C357.943 216.378 358.027 216.44 358.097 216.516C358.167 216.592 358.221 216.681 358.256 216.779C358.291 216.876 358.307 216.979 358.302 217.082C358.297 217.186 358.273 217.287 358.229 217.38C358.185 217.474 358.123 217.558 358.047 217.628C357.971 217.698 357.881 217.752 357.784 217.787C357.687 217.822 357.584 217.838 357.481 217.833C357.064 217.833 347.043 217.574 343.679 231.201C343.635 231.37 343.536 231.52 343.398 231.627C343.26 231.733 343.091 231.791 342.916 231.791Z" fill="#263238"/>
<path d="M373.059 265.219C373.058 269.815 372.039 274.354 370.075 278.509C368.111 282.664 365.252 286.332 361.702 289.249C361.238 289.642 360.651 289.859 360.043 289.863H322.747C322.14 289.859 321.553 289.642 321.089 289.249C316.365 285.371 312.888 280.184 311.095 274.34C309.301 268.495 309.27 262.25 311.005 256.388C311.149 255.697 311.513 255.072 312.041 254.604C312.569 254.137 313.234 253.852 313.936 253.793H368.839C369.543 253.851 370.209 254.135 370.739 254.602C371.269 255.07 371.633 255.696 371.778 256.388C372.628 259.254 373.06 262.229 373.059 265.219Z" fill="#19216F"/>
<path d="M372.965 267.515C354.879 273.384 337.142 280.279 319.839 288.164L320.5 288.738C337.569 280.977 355.059 274.175 372.886 268.364C372.918 268.081 372.942 267.798 372.965 267.515Z" fill="white"/>
<path d="M361.654 253.785H360.295C345.769 264.063 331.645 275.15 317.851 286.175L318.385 286.749C332.478 275.52 346.846 264.251 361.654 253.785Z" fill="white"/>
<path d="M352.82 289.863C359.344 284.515 365.729 278.998 371.975 273.31C372.101 272.854 372.218 272.398 372.321 271.934C365.587 278.094 358.673 284.07 351.578 289.863H352.82Z" fill="white"/>
<path d="M352.859 253.785C338.027 258.653 324.115 266.367 311.146 274.458C311.225 274.718 311.303 274.977 311.398 275.245C325.058 266.689 339.756 258.598 355.461 253.801L352.859 253.785Z" fill="white"/>
<path d="M310.211 259.879C314.403 257.662 318.679 255.63 323.038 253.785H321.073C317.458 255.358 313.897 257.062 310.392 258.896C310.321 259.219 310.266 259.533 310.211 259.879Z" fill="white"/>
<path d="M329.735 253.785H328.548L310.234 270.754C310.289 271.061 310.352 271.36 310.415 271.659L329.735 253.785Z" fill="white"/>
</g>
<defs>
<clipPath id="clip0_127_403">
<rect width="393" height="293" fill="white"/>
</clipPath>
</defs>
</svg>
