<svg width="26" height="26" viewBox="0 0 26 26" fill="none" xmlns="http://www.w3.org/2000/svg">
<path d="M1 4.1773C1.06868 3.97291 1.1174 3.75852 1.21073 3.56587C1.4156 3.14239 1.78482 2.89218 2.20864 2.72127C3.53821 2.18149 4.86777 1.64231 6.20379 1.11839C7.1835 0.734264 8.09453 1.31985 8.1773 2.36944C8.19432 2.58735 8.2043 2.80584 8.2043 3.02434C8.2043 9.73774 8.20332 16.4511 8.20137 23.1645C8.20531 23.453 8.16916 23.7406 8.09395 24.0191C7.93722 24.5589 7.54686 24.8737 7.0027 25H6.57654C6.45268 24.9571 6.32648 24.9195 6.20497 24.8708C4.8619 24.3339 3.51825 23.8 2.1787 23.2544C1.78541 23.0899 1.43262 22.855 1.2348 22.458C1.13384 22.253 1.07631 22.0263 1 21.8119V4.1773ZM7.40128 12.9875C7.40128 9.61185 7.40128 6.23635 7.40128 2.86105C7.40097 2.70408 7.39235 2.54724 7.37545 2.39118C7.32262 1.89663 6.97688 1.66697 6.51725 1.84905C5.16186 2.38648 3.81292 2.93917 2.45929 3.48129C2.01258 3.66044 1.80772 3.99053 1.80302 4.46041C1.80302 4.55379 1.80302 4.64777 1.80302 4.74175C1.80302 10.2425 1.80302 15.744 1.80302 21.2463C1.80302 21.3637 1.80302 21.4812 1.81007 21.5987C1.83413 22.0192 2.02608 22.3217 2.42818 22.4797C2.69586 22.586 2.95648 22.7076 3.22592 22.8151C4.29622 23.2458 5.36731 23.6749 6.43918 24.1025C6.98686 24.3204 7.3238 24.116 7.38308 23.5352C7.39705 23.4033 7.4043 23.2707 7.4048 23.1381C7.40324 19.7542 7.40206 16.3707 7.40128 12.9875Z" fill="white" stroke="white" strokeWidth="0.5"/>
<path d="M23.5668 13.3857H23.2938C19.0138 13.3857 14.7335 13.3857 10.4531 13.3857C10.344 13.3893 10.2348 13.3838 10.1267 13.3692C10.0401 13.3598 9.95999 13.3185 9.90198 13.2534C9.84397 13.1884 9.81215 13.104 9.81266 13.0168C9.79974 12.8124 9.89719 12.6644 10.0979 12.6174C10.2122 12.5936 10.3288 12.5835 10.4454 12.5875C14.7259 12.5875 19.0061 12.5875 23.2862 12.5875H23.6143C23.5257 12.4906 23.4734 12.4289 23.4165 12.3719C22.428 11.3805 21.4394 10.3914 20.4509 9.40464C20.3881 9.34634 20.331 9.28201 20.2807 9.21258C20.2261 9.13963 20.1997 9.04938 20.2064 8.95849C20.2131 8.8676 20.2524 8.7822 20.3171 8.71803C20.4492 8.56884 20.6529 8.55181 20.8272 8.67046C20.8908 8.71611 20.9497 8.76785 21.0033 8.82493C22.2556 10.0779 23.5092 11.3323 24.7642 12.5881C25.0795 12.9035 25.0795 13.0803 24.7642 13.3951C23.512 14.6481 22.2581 15.9021 21.0027 17.1571C20.9439 17.2195 20.8783 17.2752 20.8072 17.3233C20.7334 17.3769 20.6421 17.4007 20.5515 17.3898C20.461 17.3789 20.3778 17.3342 20.3189 17.2645C20.1768 17.1171 20.1703 16.9421 20.2807 16.7718C20.3308 16.702 20.3883 16.6378 20.4521 16.5803C21.4344 15.5967 22.4174 14.6133 23.4012 13.63C23.4599 13.5713 23.5298 13.5178 23.5943 13.462L23.5668 13.3857Z" fill="white" stroke="white" strokeWidth="0.5"/>
<path d="M16.9978 7.48696C16.9978 8.45608 16.9978 9.42521 16.9978 10.3943C17.0007 10.4801 16.9966 10.5659 16.9854 10.651C16.977 10.7379 16.9372 10.8187 16.8736 10.8785C16.81 10.9382 16.7269 10.9728 16.6397 10.9758C16.4348 10.994 16.2875 10.8989 16.2323 10.7009C16.2066 10.5951 16.1956 10.4862 16.1994 10.3773C16.1994 8.50953 16.1777 6.64176 16.2071 4.77458C16.2212 3.87887 15.6148 3.36083 14.7983 3.37375C13.049 3.40077 11.2991 3.38197 9.54928 3.38139C9.45569 3.38716 9.36175 3.38224 9.26928 3.3667C9.18318 3.35294 9.10486 3.30875 9.04853 3.24215C8.99221 3.17555 8.9616 3.09096 8.96228 3.00372C8.9524 2.91701 8.97434 2.82966 9.02401 2.75792C9.07368 2.68619 9.1477 2.63494 9.2323 2.61372C9.32267 2.59012 9.41604 2.58003 9.50936 2.58377C11.2982 2.58377 13.087 2.58377 14.8758 2.58377C16.1437 2.58377 16.989 3.42837 16.9966 4.69822C17.0019 5.62741 16.9978 6.55718 16.9978 7.48696Z" fill="white" stroke="white" strokeWidth="0.5"/>
<path d="M16.9974 18.5156C16.9974 19.4454 17.0026 20.3752 16.9974 21.305C16.9897 22.3222 16.4497 23.0511 15.4999 23.3166C15.289 23.3709 15.0719 23.397 14.8542 23.3942C13.0973 23.4 11.3398 23.3977 9.58291 23.3942C9.48958 23.3965 9.39631 23.3873 9.30526 23.3666C9.21525 23.351 9.13467 23.3014 9.08016 23.228C9.02565 23.1547 9.00137 23.0632 9.01235 22.9724C9.02291 22.7663 9.1409 22.6418 9.34342 22.6089C9.43652 22.598 9.53034 22.5945 9.624 22.5983C11.3733 22.5983 13.1225 22.5983 14.8718 22.5983C15.5463 22.5983 16.0247 22.2553 16.1632 21.6674C16.1915 21.514 16.2027 21.358 16.1967 21.2022C16.1967 19.3344 16.1967 17.467 16.1967 15.6C16.193 15.4911 16.2043 15.3822 16.2301 15.2764C16.2888 15.0785 16.4338 14.9868 16.6411 15.0056C16.8371 15.0233 16.9522 15.1396 16.985 15.3304C16.996 15.4157 16.9999 15.5018 16.9968 15.5877C16.9976 16.5635 16.9978 17.5395 16.9974 18.5156Z" fill="white" stroke="white" strokeWidth="0.5"/>
<path d="M6.59867 12.9875C6.59867 13.3617 6.60337 13.7364 6.59867 14.1106C6.59397 14.413 6.44018 14.5881 6.19892 14.5857C5.96764 14.5857 5.80504 14.4095 5.8021 14.1282C5.79506 13.3646 5.798 12.6011 5.8021 11.8375C5.8021 11.6548 5.86844 11.4751 6.05804 11.4364C6.186 11.4105 6.36622 11.4364 6.46072 11.5162C6.55523 11.5961 6.58869 11.76 6.59456 11.8904C6.60982 12.2522 6.59867 12.6193 6.59867 12.9875Z" fill="white" stroke="white" strokeWidth="0.5"/>
</svg>
