<svg width="41" height="41" viewBox="0 0 41 41" fill="none" xmlns="http://www.w3.org/2000/svg">
<path d="M17.0833 12.8124C17.0833 12.5859 17.1732 12.3686 17.3334 12.2084C17.4936 12.0482 17.7109 11.9583 17.9374 11.9583H24.7708C24.9973 11.9583 25.2146 12.0482 25.3747 12.2084C25.5349 12.3686 25.6249 12.5859 25.6249 12.8124C25.6249 13.039 25.5349 13.2562 25.3747 13.4164C25.2146 13.5766 24.9973 13.6666 24.7708 13.6666H17.9374C17.7109 13.6666 17.4936 13.5766 17.3334 13.4164C17.1732 13.2562 17.0833 13.039 17.0833 12.8124ZM17.9374 15.3749C17.7109 15.3749 17.4936 15.4649 17.3334 15.6251C17.1732 15.7853 17.0833 16.0025 17.0833 16.2291C17.0833 16.4556 17.1732 16.6729 17.3334 16.8331C17.4936 16.9933 17.7109 17.0833 17.9374 17.0833H24.7708C24.9973 17.0833 25.2146 16.9933 25.3747 16.8331C25.5349 16.6729 25.6249 16.4556 25.6249 16.2291C25.6249 16.0025 25.5349 15.7853 25.3747 15.6251C25.2146 15.4649 24.9973 15.3749 24.7708 15.3749H17.9374ZM17.0833 23.9166C17.0833 23.69 17.1732 23.4728 17.3334 23.3126C17.4936 23.1524 17.7109 23.0624 17.9374 23.0624H24.7708C24.9973 23.0624 25.2146 23.1524 25.3747 23.3126C25.5349 23.4728 25.6249 23.69 25.6249 23.9166C25.6249 24.1431 25.5349 24.3604 25.3747 24.5206C25.2146 24.6808 24.9973 24.7708 24.7708 24.7708H17.9374C17.7109 24.7708 17.4936 24.6808 17.3334 24.5206C17.1732 24.3604 17.0833 24.1431 17.0833 23.9166ZM17.9374 26.4791C17.7109 26.4791 17.4936 26.5691 17.3334 26.7293C17.1732 26.8895 17.0833 27.1067 17.0833 27.3333C17.0833 27.5598 17.1732 27.7771 17.3334 27.9372C17.4936 28.0974 17.7109 28.1874 17.9374 28.1874H24.7708C24.9973 28.1874 25.2146 28.0974 25.3747 27.9372C25.5349 27.7771 25.6249 27.5598 25.6249 27.3333C25.6249 27.1067 25.5349 26.8895 25.3747 26.7293C25.2146 26.5691 24.9973 26.4791 24.7708 26.4791H17.9374Z" fill="#19216F"/>
<path fillRule="evenodd" clipRule="evenodd" d="M8.54175 23.0624C8.54175 22.8359 8.63174 22.6186 8.79193 22.4584C8.95212 22.2982 9.16938 22.2083 9.39591 22.2083H13.6667C13.8933 22.2083 14.1105 22.2982 14.2707 22.4584C14.4309 22.6186 14.5209 22.8359 14.5209 23.0624V27.3333C14.5209 27.5598 14.4309 27.7771 14.2707 27.9372C14.1105 28.0974 13.8933 28.1874 13.6667 28.1874H9.39591C9.16938 28.1874 8.95212 28.0974 8.79193 27.9372C8.63174 27.7771 8.54175 27.5598 8.54175 27.3333V23.0624ZM10.2501 23.9166V26.4791H12.8126V23.9166H10.2501Z" fill="#19216F"/>
<path d="M15.1248 13.4163C15.2804 13.2552 15.3665 13.0395 15.3646 12.8155C15.3626 12.5915 15.2728 12.3773 15.1144 12.2189C14.956 12.0606 14.7418 11.9707 14.5178 11.9688C14.2939 11.9668 14.0781 12.0529 13.917 12.2085L11.1042 15.0213L9.99981 13.9169C9.83871 13.7613 9.62295 13.6752 9.39899 13.6771C9.17503 13.6791 8.9608 13.7689 8.80243 13.9273C8.64406 14.0856 8.55422 14.2999 8.55228 14.5238C8.55033 14.7478 8.63643 14.9636 8.79202 15.1247L11.1042 17.4369L15.1248 13.4163Z" fill="#19216F"/>
<path fillRule="evenodd" clipRule="evenodd" d="M8.54167 5.125C7.63551 5.125 6.76647 5.48497 6.12572 6.12572C5.48497 6.76647 5.125 7.63551 5.125 8.54167V32.4583C5.125 33.3645 5.48497 34.2335 6.12572 34.8743C6.76647 35.515 7.63551 35.875 8.54167 35.875H25.625C26.5312 35.875 27.4002 35.515 28.0409 34.8743C28.6817 34.2335 29.0417 33.3645 29.0417 32.4583V8.54167C29.0417 7.63551 28.6817 6.76647 28.0409 6.12572C27.4002 5.48497 26.5312 5.125 25.625 5.125H8.54167ZM6.83333 8.54167C6.83333 8.08859 7.01332 7.65407 7.33369 7.33369C7.65407 7.01332 8.08859 6.83333 8.54167 6.83333H25.625C26.0781 6.83333 26.5126 7.01332 26.833 7.33369C27.1533 7.65407 27.3333 8.08859 27.3333 8.54167V32.4583C27.3333 32.9114 27.1533 33.3459 26.833 33.6663C26.5126 33.9867 26.0781 34.1667 25.625 34.1667H8.54167C8.08859 34.1667 7.65407 33.9867 7.33369 33.6663C7.01332 33.3459 6.83333 32.9114 6.83333 32.4583V8.54167ZM30.75 13.6667C30.75 12.987 31.02 12.3353 31.5005 11.8547C31.9811 11.3741 32.6329 11.1042 33.3125 11.1042C33.9921 11.1042 34.6439 11.3741 35.1245 11.8547C35.605 12.3353 35.875 12.987 35.875 13.6667V31.0088L33.3125 34.8526L30.75 31.0088V13.6667ZM33.3125 12.8125C33.086 12.8125 32.8687 12.9025 32.7085 13.0627C32.5483 13.2229 32.4583 13.4401 32.4583 13.6667V15.375H34.1667V13.6667C34.1667 13.4401 34.0767 13.2229 33.9165 13.0627C33.7563 12.9025 33.539 12.8125 33.3125 12.8125ZM33.3125 31.7724L32.4583 30.4912V17.0833H34.1667V30.4912L33.3125 31.7724Z" fill="#19216F"/>
</svg>
