<svg width="35" height="35" viewBox="0 0 35 35" fill="none" xmlns="http://www.w3.org/2000/svg">
<path d="M17.4999 30.6249C19.2235 30.6249 20.9302 30.2854 22.5226 29.6258C24.115 28.9662 25.5619 27.9995 26.7807 26.7807C27.9995 25.5619 28.9662 24.115 29.6258 22.5226C30.2854 20.9302 30.6249 19.2235 30.6249 17.4999C30.6249 15.7763 30.2854 14.0696 29.6258 12.4772C28.9662 10.8848 27.9995 9.43791 26.7807 8.21914C25.5619 7.00037 24.115 6.03359 22.5226 5.374C20.9302 4.71441 19.2235 4.37492 17.4999 4.37492C14.019 4.37492 10.6806 5.75773 8.21914 8.21914C5.75773 10.6806 4.37492 14.019 4.37492 17.4999C4.37492 20.9809 5.75773 24.3193 8.21914 26.7807C10.6806 29.2421 14.019 30.6249 17.4999 30.6249ZM33.5416 17.4999C33.5416 26.3593 26.3593 33.5416 17.4999 33.5416C8.64054 33.5416 1.45825 26.3593 1.45825 17.4999C1.45825 8.64054 8.64054 1.45825 17.4999 1.45825C26.3593 1.45825 33.5416 8.64054 33.5416 17.4999ZM21.8749 23.937L16.0416 18.1037V8.02075H18.9583V16.8962L23.937 21.8749L21.8749 23.937Z" fill="#19216F"/>
</svg>
