<svg width="56" height="73" viewBox="0 0 56 73" fill="none" xmlns="http://www.w3.org/2000/svg">
<g clipPath="url(#clip0_161_6420)">
<path d="M13.761 24.5965L12.6672 25.1055C11.5331 25.6334 10.1712 25.1421 9.64036 24.0136L8.6456 21.899C8.1148 20.7706 8.60847 19.4157 9.7426 18.8878L10.8364 18.3789C11.9705 17.8509 13.3324 18.3423 13.8632 19.4707L14.858 21.5853C15.3888 22.7137 14.8951 24.0686 13.761 24.5965Z" fill="url(#paint0_linear_161_6420)"/>
<path d="M13.8044 18.8812L8.2286 21.4765C7.5277 21.8028 6.68571 21.4992 6.35768 20.8016C6.02964 20.1042 6.33464 19.2666 7.03579 18.9403L12.6116 16.345C13.3124 16.0188 14.1544 16.3224 14.4825 17.02C14.8105 17.7173 14.5055 18.555 13.8044 18.8812Z" fill="url(#paint1_linear_161_6420)"/>
<path d="M41.6704 25.0086L42.7487 25.5497C43.8667 26.1108 45.2426 25.6599 45.8064 24.5477L46.8632 22.4633C47.4271 21.3511 46.9736 19.9822 45.8556 19.421L44.7773 18.88C43.6593 18.3188 42.2835 18.7698 41.7196 19.882L40.6628 21.9663C40.0989 23.0786 40.5524 24.4475 41.6704 25.0086Z" fill="url(#paint2_linear_161_6420)"/>
<path d="M41.7959 19.2945L47.2927 22.0533C47.9836 22.4001 48.8342 22.1215 49.1827 21.4339C49.5312 20.7465 49.251 19.9003 48.5598 19.5534L43.0631 16.7947C42.3722 16.4479 41.5216 16.7264 41.1731 17.4141C40.8246 18.1014 41.1047 18.9477 41.7959 19.2945Z" fill="url(#paint3_linear_161_6420)"/>
<path d="M28.0764 0.399025C24.1712 0.341363 20.9589 3.44431 20.9015 7.32955C20.8441 11.2148 23.9635 14.4112 27.8687 14.4689C31.7739 14.5265 34.9862 11.4236 35.0436 7.53836C35.101 3.65313 31.9816 0.456688 28.0764 0.399025ZM27.8903 13.0031C24.7987 12.9575 22.3294 10.4271 22.3748 7.3513C22.4202 4.27552 24.9632 1.81913 28.0548 1.86478C31.1463 1.91043 33.6157 4.44083 33.5703 7.51661C33.5249 10.5924 30.9819 13.0488 27.8903 13.0031Z" fill="url(#paint4_linear_161_6420)"/>
<path d="M29.1802 9.0154L26.7189 8.97906C25.4077 8.9597 24.3291 10.0015 24.3098 11.3061L24.2316 16.6055C24.2123 17.9101 25.2597 18.9833 26.5709 19.0027L29.0322 19.039C30.3434 19.0584 31.422 18.0165 31.4413 16.712L31.5195 11.4125C31.5388 10.108 30.4914 9.03476 29.1802 9.0154Z" fill="url(#paint5_linear_161_6420)"/>
<path d="M32.9118 15.7389L22.7905 15.5894L22.7301 19.6817L32.8514 19.8311L32.9118 15.7389Z" fill="url(#paint6_linear_161_6420)"/>
<path d="M27.024 71.6611C41.9487 71.8815 54.2253 60.0231 54.4446 45.1746C54.6638 30.3262 42.7427 18.1105 27.818 17.8901C12.8933 17.6697 0.616699 29.5281 0.397451 44.3766C0.178204 59.2251 12.0993 71.4408 27.024 71.6611Z" fill="#132EE0"/>
<path d="M27.0962 66.7623C39.3014 66.9425 49.3411 57.2448 49.5204 45.1019C49.6997 32.9591 39.9507 22.9692 27.7455 22.789C15.5403 22.6088 5.50065 32.3064 5.32135 44.4493C5.14205 56.5922 14.891 66.582 27.0962 66.7623Z" fill="#0049C6"/>
<path d="M27.1309 64.4385C38.0462 64.5997 47.0248 55.927 47.1851 45.0674C47.3455 34.2079 38.6269 25.2739 27.7116 25.1127C16.7963 24.9515 7.81777 33.6243 7.65742 44.4838C7.49707 55.3433 16.2157 64.2774 27.1309 64.4385Z" fill="#D8D8D8"/>
<path d="M27.6215 31.1871L26.5648 44.1797L27.4209 44.7756L28.2941 44.2052L27.6215 31.1871Z" fill="#333333"/>
<path d="M27.3909 46.8169C28.5241 46.8336 29.4562 45.9333 29.4728 44.8059C29.4895 43.6785 28.5844 42.751 27.4512 42.7343C26.318 42.7176 25.3859 43.6179 25.3693 44.7453C25.3526 45.8727 26.2577 46.8002 27.3909 46.8169Z" fill="#515151"/>
<path d="M28.1614 25.8673L27.2383 25.8536L27.1982 28.5648L28.1213 28.5784L28.1614 25.8673Z" fill="#A8A8A8"/>
<path d="M18.5596 28.0305L17.7534 28.4778L19.0813 30.8459L19.8875 30.3985L18.5596 28.0305Z" fill="#A8A8A8"/>
<path d="M11.3322 34.6809L10.8589 35.4694L13.1988 36.8598L13.6721 36.0713L11.3322 34.6809Z" fill="#A8A8A8"/>
<path d="M8.41542 44.0357L8.40186 44.9541L11.1269 44.9943L11.1405 44.076L8.41542 44.0357Z" fill="#A8A8A8"/>
<path d="M10.5912 53.5892L11.041 54.3913L13.421 53.0706L12.9712 52.2684L10.5912 53.5892Z" fill="#A8A8A8"/>
<path d="M17.2767 60.7808L18.0693 61.2518L19.4665 58.924L18.6739 58.453L17.2767 60.7808Z" fill="#A8A8A8"/>
<path d="M26.6804 63.684L27.6035 63.6976L27.6435 60.9865L26.7205 60.9729L26.6804 63.684Z" fill="#A8A8A8"/>
<path d="M36.2822 61.5206L37.0884 61.0732L35.7605 58.7051L34.9543 59.1525L36.2822 61.5206Z" fill="#A8A8A8"/>
<path d="M43.5096 54.8705L43.9829 54.082L41.643 52.6916L41.1697 53.4801L43.5096 54.8705Z" fill="#A8A8A8"/>
<path d="M46.4264 45.5155L46.4399 44.5971L43.7149 44.5569L43.7013 45.4753L46.4264 45.5155Z" fill="#A8A8A8"/>
<path d="M44.2506 35.9621L43.8008 35.1599L41.4208 36.4807L41.8706 37.2828L44.2506 35.9621Z" fill="#A8A8A8"/>
<path d="M37.5651 28.7702L36.7725 28.2992L35.3753 30.627L36.1679 31.098L37.5651 28.7702Z" fill="#A8A8A8"/>
<path opacity="0.33" d="M54.2491 41.3108C52.5598 28.2634 41.4492 18.0913 27.842 17.8904C14.2347 17.6895 2.62505 27.7059 0.701722 40.8702C11.1123 45.9496 31.0376 52.1152 54.2491 41.3108Z" fill="white"/>
</g>
<defs>
<linearGradient id="paint0_linear_161_6420" x1="9.14423" y1="22.9568" x2="14.352" y2="20.5073" gradientUnits="userSpaceOnUse">
<stop stop-color="#0049C6"/>
<stop offset="1" stop-color="#CDF4FF"/>
</linearGradient>
<linearGradient id="paint1_linear_161_6420" x1="9.20049" y1="22.2616" x2="16.4566" y2="18.7955" gradientUnits="userSpaceOnUse">
<stop stop-color="#0049C6"/>
<stop offset="1" stop-color="#CDF4FF"/>
</linearGradient>
<linearGradient id="paint2_linear_161_6420" x1="43.8158" y1="18.6392" x2="43.7102" y2="25.7905" gradientUnits="userSpaceOnUse">
<stop stop-color="#0049C6"/>
<stop offset="1" stop-color="#CDF4FF"/>
</linearGradient>
<linearGradient id="paint3_linear_161_6420" x1="48.0985" y1="26.0255" x2="44.0899" y2="16.0292" gradientUnits="userSpaceOnUse">
<stop stop-color="#CDF4FF"/>
<stop offset="1" stop-color="#0049C6"/>
</linearGradient>
<linearGradient id="paint4_linear_161_6420" x1="22.8992" y1="12.3345" x2="34.5103" y2="17.1574" gradientUnits="userSpaceOnUse">
<stop stop-color="#0049C6"/>
<stop offset="1" stop-color="#8ABCED"/>
</linearGradient>
<linearGradient id="paint5_linear_161_6420" x1="24.1986" y1="17.5605" x2="35.499" y2="19.9618" gradientUnits="userSpaceOnUse">
<stop stop-color="#0049C6"/>
<stop offset="1" stop-color="#CDF4FF"/>
</linearGradient>
<linearGradient id="paint6_linear_161_6420" x1="22.7603" y1="17.6355" x2="31.683" y2="22.0216" gradientUnits="userSpaceOnUse">
<stop stop-color="#0049C6"/>
<stop offset="1" stop-color="#5585D9"/>
</linearGradient>
<clipPath id="clip0_161_6420">
<rect width="54.053" height="71.2699" fill="white" transform="translate(1.05273) rotate(0.845947)"/>
</clipPath>
</defs>
</svg>
