<svg width="21" height="34" viewBox="0 0 21 34" fill="none" xmlns="http://www.w3.org/2000/svg">
<path d="M0.000220142 0V0.677364C0.000220142 8.06892 2.7947 14.4268 7.05585 16.779V17.2208C2.79463 19.5731 0.000146389 25.9309 0.000146389 33.3226V34H21V33.3226C21 25.8876 18.1582 19.5278 13.8574 17.214V16.7858C18.1579 14.4719 21 8.11198 21 0.677292V0H0H0.000220142ZM1.38706 1.35466H19.6133C19.4319 8.34688 16.4831 14.08 12.8803 15.7753L12.489 15.9588V18.0433L12.8803 18.2267C16.483 19.922 19.4316 25.6534 19.6133 32.6451H1.38706C1.56693 25.6926 4.47207 19.952 8.04225 18.2222L8.42673 18.0365V15.9634L8.04225 15.7777C4.47221 14.0478 1.56685 8.30722 1.38706 1.35466ZM17.0341 7.59868C12.8152 9.6149 7.91445 9.61707 4.03039 7.89557C5.10357 11.5862 7.23923 14.213 9.75191 14.6471C9.63468 14.8004 9.57117 14.9873 9.57102 15.1795C9.57102 15.6696 9.97293 16.0677 10.4681 16.0677C10.9634 16.0677 11.3653 15.6696 11.3653 15.1795C11.3653 14.9823 11.2988 14.8012 11.1891 14.6539C13.7835 14.2276 15.985 11.4588 17.0341 7.59868ZM10.4681 17.1575C9.97293 17.1575 9.57102 17.5553 9.57102 18.0456C9.57102 18.5358 9.97293 18.9337 10.4681 18.9337C10.9634 18.9337 11.3653 18.5358 11.3653 18.0456C11.3653 17.5553 10.9634 17.1575 10.4681 17.1575ZM10.4681 20.0053C9.97293 20.0053 9.57102 20.4033 9.57102 20.8934C9.57102 21.3837 9.97293 21.7815 10.4681 21.7815C10.9634 21.7815 11.3653 21.3837 11.3653 20.8934C11.3653 20.4033 10.9634 20.0053 10.4681 20.0053ZM10.4681 22.8714C9.97293 22.8714 9.57102 23.2693 9.57102 23.7595C9.57102 24.2496 9.97293 24.6476 10.4681 24.6476C10.9634 24.6476 11.3653 24.2496 11.3653 23.7595C11.3653 23.2693 10.9634 22.8714 10.4681 22.8714ZM10.4773 25.7646C8.77752 25.7849 7.09459 27.6329 4.92517 31.2496H16.1301C13.8947 27.5519 12.1771 25.7443 10.4773 25.7646Z" fill="#19216F"/>
</svg>
