<svg width="14" height="20" viewBox="0 0 14 20" fill="none" xmlns="http://www.w3.org/2000/svg">
<path fillRule="evenodd" clipRule="evenodd" d="M13 12C13.1704 11.9999 13.3379 11.9563 13.4867 11.8733C13.6355 11.7902 13.7606 11.6706 13.8502 11.5256C13.9398 11.3806 13.9908 11.2152 13.9985 11.045C14.0061 10.8748 13.9702 10.7054 13.894 10.553L12.118 7L13.894 3.447C13.9702 3.29458 14.0061 3.12522 13.9985 2.95501C13.9908 2.78479 13.9398 2.61935 13.8502 2.47439C13.7606 2.32944 13.6355 2.20977 13.4867 2.12674C13.3379 2.04372 13.1704 2.00009 13 2H2V1C2 0.734784 1.89464 0.48043 1.70711 0.292893C1.51957 0.105357 1.26522 0 1 0C0.734784 0 0.48043 0.105357 0.292893 0.292893C0.105357 0.48043 0 0.734784 0 1V19C0 19.2652 0.105357 19.5196 0.292893 19.7071C0.48043 19.8946 0.734784 20 1 20C1.26522 20 1.51957 19.8946 1.70711 19.7071C1.89464 19.5196 2 19.2652 2 19V12H13Z" fill="white"/>
</svg>
