<svg width="128" height="128" viewBox="0 0 128 128" fill="none" xmlns="http://www.w3.org/2000/svg">
<circle cx="64" cy="64" r="64" fill="#19216F"/>
<g clipPath="url(#clip0_290_189)">
<g filter="url(#filter0_d_290_189)">
<path d="M54.5669 83.1009C52.4188 81.4099 50.1286 79.79 48.5595 77.5099C45.2638 73.488 42.7247 68.8263 40.993 63.931C39.9419 60.747 39.5864 57.3345 38.2305 54.2724C36.8188 52.0482 38.4743 49.6209 40.9067 48.915C41.9884 48.7068 43.8977 47.681 41.5973 48.4173C39.5356 49.9306 39.3376 47.0412 41.4501 46.8584C42.8923 46.6654 43.4255 45.4873 42.9329 44.4209C41.3841 43.4103 46.6907 42.2982 44.0196 40.79C41.2368 37.7888 47.9095 37.2099 46.2641 40.6224C45.8731 43.2427 50.9259 40.14 49.7528 43.1666C50.9462 44.6189 54.2216 43.4966 54.1352 45.538C55.872 45.6599 56.4712 47.1173 58.0962 47.2291C59.7872 47.9908 62.8493 48.5951 63.4231 50.4994C61.7473 51.8248 57.8626 47.7572 57.6798 51.4337C58.1876 56.8623 58.0555 62.4533 60.0411 67.6228C60.9805 70.7509 63.2555 73.2138 65.3122 75.6513C67.2825 78.038 69.9434 79.7189 72.6653 81.1357C75.047 82.258 77.6165 83.0044 80.2165 83.4716C81.2677 82.6642 83.1313 79.6732 84.7716 80.9326C84.8528 82.3544 81.5114 83.8982 84.6141 83.7459C86.4372 83.1974 87.7016 85.1525 89.2048 83.3853C90.586 85.0255 94.9532 82.3392 93.968 85.6857C92.6376 86.5439 90.6977 86.0259 89.3622 87.2091C87.1634 86.1123 85.4165 88.1892 82.9841 87.9302C80.2825 88.4126 77.5352 88.6107 74.793 88.6107C70.2989 88.2552 65.7083 88.108 61.4376 86.5439C59.0305 85.8431 56.6794 84.472 54.5669 83.1009ZM58.3602 84.7462C60.7114 85.7619 63.0118 86.8334 65.5864 87.1584C69.6743 87.7271 73.8993 88.6005 78.0024 87.8033C76.1438 86.9654 74.2243 88.1283 72.3759 87.2041C70.1567 87.6814 67.7751 87.0822 65.5204 86.7876C62.9559 85.6451 60.1884 84.858 57.7864 83.3751C54.7852 82.2783 59.3403 84.7818 60.1477 84.9849C62.0216 86.0513 58.086 84.4365 57.5274 83.9947C55.9583 83.1111 55.7552 83.299 57.37 84.1927C57.695 84.3806 58.02 84.5837 58.3602 84.7462ZM53.8864 81.5826C56.1665 82.4255 53.8763 79.9779 52.8352 80.1201C52.3731 79.3177 51.068 78.8099 51.9872 78.3783C50.3317 78.9521 50.2505 76.1947 49.4735 76.5857C47.7216 76.0322 48.793 74.072 46.7059 72.8685C46.518 71.599 44.6341 70.5021 44.0348 68.5877C43.7708 67.6076 41.9071 64.7994 43.0497 67.4146C44.0247 69.9334 45.736 72.0916 47.163 74.2447C48.27 76.2962 49.5802 78.4392 51.5911 79.7189C52.2716 80.3791 52.9266 81.3794 53.8864 81.5826ZM47.3204 74.3767C47.4016 74.0314 47.7368 75.1181 47.3204 74.3767V74.3767ZM56.6134 82.5931C55.8872 82.3087 57.1212 82.3697 56.6134 82.5931V82.5931ZM57.8524 83.0451C57.2887 83.3955 57.7255 82.4205 57.8524 83.0451V83.0451ZM59.4012 83.69C58.2638 83.2482 60.1376 82.9892 59.4012 83.69V83.69ZM62.052 85.1677C60.62 84.9189 62.504 84.5076 62.052 85.1677V85.1677ZM56.9587 81.6181C55.4809 81.608 58.1012 80.8767 56.9587 81.6181V81.6181ZM58.1216 82.197C57.7052 82.3697 58.086 81.806 58.1216 82.197V82.197ZM63.9259 85.8177C64.8602 86.4068 69.3747 87.1076 66.5462 86.0615C66.0739 86.163 61.3005 84.7107 63.9259 85.8177ZM54.7091 78.6423C53.2618 78.2107 54.6177 78.2513 54.7091 78.6423V78.6423ZM57.4106 80.2166C55.9532 79.8408 58.1165 79.7291 57.4106 80.2166V80.2166ZM59.6856 81.613C58.0454 81.2322 60.6911 81.2322 59.6856 81.613V81.613ZM53.6071 77.4439C54.704 78.2818 58.0251 77.5505 55.2829 76.9412C54.0387 76.2759 51.2255 75.824 53.1399 77.3423L53.6071 77.4439ZM61.2243 82.0955C59.3098 81.6486 61.6813 81.3185 61.2243 82.0955V82.0955ZM58.9087 80.2521C61.5848 81.0087 56.6591 78.556 58.2485 79.9728L58.604 80.1353L58.9087 80.2521ZM63.5501 82.9334C61.2598 82.588 66.0841 82.9587 63.5501 82.9334V82.9334ZM52.6321 75.9763C52.0075 76.0169 52.5356 75.5041 52.6321 75.9763V75.9763ZM67.836 85.3404C67.0134 85.9752 67.9071 84.4873 67.836 85.3404V85.3404ZM56.9587 78.6271C56.1665 78.6068 56.8063 78.1802 56.9587 78.6271V78.6271ZM52.8759 75.6818C50.8802 75.0419 54.3282 75.5955 52.8759 75.6818V75.6818ZM48.0313 72.5537C46.447 71.2994 47.8485 71.8529 48.0313 72.5537V72.5537ZM60.7419 80.6177C60.4778 80.313 60.6149 80.6837 60.7419 80.6177V80.6177ZM68.6536 85.4724C68.222 85.6502 68.6282 85.0103 68.6536 85.4724V85.4724ZM60.0411 79.8966C58.802 79.7138 60.1833 79.2974 60.0411 79.8966V79.8966ZM54.1505 76.1591C52.4137 75.4279 55.2321 76.0423 54.1505 76.1591V76.1591ZM64.1188 82.3544C62.4735 82.0294 65.8048 81.6841 64.1188 82.3544V82.3544ZM58.9341 78.8353C60.879 79.0841 56.6184 77.5099 58.5075 78.6931L58.9341 78.8353ZM65.693 82.9943C67.511 81.9076 66.9118 85.5384 68.7755 83.299C70.6137 81.9584 67.186 84.9595 69.4509 83.5376C71.0911 82.4408 73.5083 84.0556 75.0368 84.5837C76.1337 84.5279 77.2052 85.5334 78.3325 84.924C80.5009 84.34 74.0872 84.0556 75.768 83.0197C73.7825 83.5986 72.3149 82.3291 71.3399 81.0595C69.1106 80.5466 66.536 79.4091 65.4239 77.4337C64.972 76.6923 66.079 77.5404 65.0329 76.3267C63.6923 75.1334 63.022 73.7775 62.1231 72.3251C61.0466 71.7513 60.9196 70.0603 60.813 72.2693C60.8231 70.8779 59.513 69.9384 59.193 70.3294C59.188 68.9888 60.5946 69.6591 59.6095 68.6689C59.3962 67.2775 58.7005 65.8302 58.4923 64.2611C58.1673 63.5044 58.4466 61.8845 57.3802 63.5959C56.9942 65.4087 57.2532 61.3716 57.8575 62.7021C58.6497 61.3462 57.5731 61.5037 57.5274 61.6916C58.0454 60.5439 57.8524 58.9189 57.3903 59.5384C57.6645 58.3248 57.827 55.0697 56.979 55.6486C57.4919 54.3791 57.954 49.8392 55.7247 51.5709C54.8208 51.5861 53.2618 51.8959 52.5204 52.2666C54.836 53.5412 52.2868 52.7287 51.3423 52.5255C51.2204 53.7087 50.286 53.1959 49.118 53.206C50.9817 53.4345 48.2091 55.1103 47.1427 54.4603C45.7513 55.1255 48.3411 56.781 47.168 57.2939C47.3102 58.0658 45.0403 57.0146 45.218 58.797C43.8723 58.2283 45.0352 60.9095 45.7055 60.0056C47.9958 60.6251 47.3204 62.0419 47.3763 63.3826C47.0005 64.1646 45.5329 61.5443 47.0513 61.6662C45.8528 59.7212 45.7259 60.9654 44.7356 61.8642C44.5071 61.9302 47.2696 63.149 45.5329 63.7533C47.0614 63.9919 47.1071 65.3275 47.4169 66.1705C48.336 67.1251 48.1481 65.1142 49.245 66.2619C48.5493 65.2361 45.5634 63.3775 47.9653 63.9716C47.9501 62.9408 47.5286 62.108 48.27 62.1283C49.0013 60.808 47.5032 65.3884 49.1485 63.7076C49.6055 63.5095 49.7173 62.3873 50.5348 63.8142C51.7231 64.9822 50.9665 65.8302 49.2856 64.7587C49.5852 65.7794 51.5302 66.14 51.1645 67.7345C51.5505 69.1361 52.0938 68.6181 52.5661 68.5369C52.9368 69.8978 53.145 68.8974 53.1653 68.2474C54.8614 68.613 54.4653 69.6134 54.9934 70.3142C56.1614 70.8423 53.3227 66.7392 55.3286 69.0802C57.4411 70.9845 56.1208 71.7818 54.2266 71.4771C55.4251 71.3806 55.811 73.097 57.3091 73.0361C58.6751 73.6861 59.6044 76.1845 57.2481 75.1435C56.4305 74.4072 53.536 73.4982 55.9024 74.8998C58.086 75.9103 59.8177 76.5146 61.9251 77.7841C63.4282 78.8607 64.0833 80.0896 64.652 80.3334C63.3876 80.9376 60.8384 79.8509 62.7325 79.5158C61.5493 79.3025 60.2239 78.7033 61.3563 80.1759C62.3161 80.9783 64.7637 80.897 65.2055 80.9834C64.8348 81.8009 64.195 81.8669 65.2208 81.9279C64.0782 82.5474 65.5864 82.6439 65.693 82.9943ZM63.3571 76.3927C62.6614 75.6666 62.4837 74.3056 63.2352 75.4888C63.6161 75.6412 64.4692 77.713 63.3571 76.3927ZM70.9692 81.2271C70.9794 81.5572 71.4009 81.1966 70.9692 81.2271V81.2271ZM62.2602 74.6103C62.2298 73.5084 62.5091 75.4584 62.2602 74.6103V74.6103ZM61.5036 73.5896C60.6251 71.9037 62.6055 74.072 61.5036 73.5896V73.5896ZM52.3325 67.2623C52.5864 68.1408 52.8454 67.1252 52.3325 67.2623V67.2623ZM59.6298 71.2181C59.9446 70.0349 60.0005 72.2134 59.6298 71.2181V71.2181ZM54.4755 67.633C54.1149 66.9779 55.2372 68.2474 54.4755 67.633V67.633ZM58.8985 69.0498C58.0708 67.1962 59.4876 68.0341 59.0813 69.3544L58.8985 69.0498ZM51.2712 63.9666C50.9005 63.3572 50.2911 61.5697 50.4841 61.0263C50.6618 61.915 52.3731 64.8501 51.322 62.24C50.1641 60.0564 52.7083 62.9509 52.9723 63.4943C53.0942 64.0376 52.2563 63.347 52.8251 64.6166C51.7891 63.1693 52.2157 65.4189 51.2712 63.9666ZM48.9149 62.3416C49.0114 60.9248 49.4532 63.3115 48.9149 62.3416V62.3416ZM49.9712 62.7072C50.479 61.6357 50.8294 64.1951 49.9712 62.7072V62.7072ZM47.422 60.7318C46.5434 59.8584 45.9087 59.056 47.4626 60.1884C48.0618 60.2138 46.1321 58.3603 47.6048 59.5994C49.1587 59.8837 48.3716 62.1435 47.422 60.7318ZM48.7626 60.6962C49.0317 61.1939 49.2704 60.1935 48.7626 60.6962V60.6962ZM49.5852 60.9603C48.8134 59.513 50.5247 61.5697 49.5852 60.9603V60.9603ZM47.9501 59.3962C45.4009 57.1263 51.1544 60.5845 48.3665 59.8177L47.9501 59.3962ZM55.2575 63.6416C54.1505 62.9814 54.963 58.9798 55.3387 61.7169C56.4102 61.3716 55.2778 63.1287 56.0802 63.1134C55.9583 64.2205 55.5977 64.6216 55.2575 63.6416ZM57.9641 65.2412C58.0708 64.0326 58.1927 66.0638 57.9641 65.2412V65.2412ZM57.4919 64.774C57.5071 65.3834 57.6138 64.2611 57.4919 64.774V64.774ZM48.4477 58.6498C46.8075 56.39 53.211 60.94 49.4989 59.2236C49.1079 59.1169 48.6407 59.0814 48.4477 58.6498ZM53.6579 61.4072C53.5005 59.5029 54.0032 61.722 53.6579 61.4072V61.4072ZM57.6087 63.9462C57.6341 64.6623 57.9134 62.8595 57.6087 63.9462V63.9462ZM48.7016 57.7865C49.6766 57.5783 52.7388 59.4978 49.9255 58.3349C49.6106 57.9845 48.9454 58.1419 48.7016 57.7865ZM57.0653 61.9556C57.1669 60.0056 57.6493 60.7927 57.0704 62.2349L57.0653 61.9556ZM49.4227 57.106C49.8188 56.522 48.3665 54.4755 49.6309 56.3697C50.1794 56.8013 51.2102 57.0959 50.2962 57.2787C51.7384 58.5482 49.9509 57.624 49.4227 57.106ZM56.654 61.3462C56.8927 62.6462 56.9282 59.1271 56.654 61.3462V61.3462ZM48.595 55.0595C48.7575 55.4607 48.8997 54.9275 48.595 55.0595V55.0595ZM50.479 56.1818C50.9665 55.1611 51.3778 57.3142 50.479 56.1818V56.1818ZM55.7958 59.1373C55.7958 58.7462 55.8973 59.706 55.7958 59.1373V59.1373ZM55.4911 58.4568C54.7548 56.6337 56.1766 59.4216 55.4911 58.4568V58.4568ZM55.0391 57.2634C54.9122 56.5119 55.4606 58.208 55.0391 57.2634V57.2634ZM55.7755 56.065C55.2677 55.1712 56.4153 52.1294 56.5423 54.0185C56.0091 55.4861 56.3899 56.3087 56.7606 54.3384C57.4512 52.7845 56.6134 57.3955 55.7755 56.065ZM56.5321 51.5404C56.5829 51.8705 56.7555 51.2712 56.5321 51.5404V51.5404ZM55.2677 76.4841C54.968 76.2201 55.3032 76.6517 55.2677 76.4841V76.4841ZM57.8727 77.8044C59.3251 78.1802 59.3149 77.581 58.0048 77.4033C57.2989 76.7482 55.0747 76.0525 57.0653 77.322C57.2024 77.6521 57.6188 77.6419 57.8727 77.8044ZM52.7235 74.3818C53.5208 74.981 55.7348 76.0677 53.861 74.6103C54.4907 73.8791 52.6524 73.488 53.2618 72.9955C51.7079 72.0459 52.038 72.1322 53.1247 72.1626C51.261 71.3298 53.3938 71.3908 53.2923 70.9642C52.5712 70.822 49.7223 69.6947 51.3981 71.0556C49.6919 70.1873 50.9919 71.3806 50.4739 71.2537C48.727 70.7763 52.0278 72.5841 50.1997 72.1322C51.2001 72.9244 52.8911 74.1634 50.6212 72.9701C50.3317 73.4017 52.2513 74.0568 52.7235 74.3818ZM55.4505 75.9509C53.8255 74.6408 58.7665 77.0173 55.4505 75.9509V75.9509ZM69.4153 84.406C68.9583 84.9697 69.4559 83.7458 69.4153 84.406V84.406ZM70.8473 85.0103C71.6141 84.2689 70.8778 86.1935 72.1169 84.8275C72.1321 83.8525 72.0813 83.2736 70.695 84.4619C70.3141 84.6751 70.1415 85.574 70.8473 85.0103ZM48.072 70.7052C46.4216 69.7861 47.8333 69.781 48.072 70.7052V70.7052ZM49.6005 71.7107C47.5692 70.8576 49.0317 70.7662 49.6005 71.7107V71.7107ZM58.3196 76.9666C59.1727 77.7232 62.2298 77.5201 59.3505 77.058C58.929 76.4283 56.6489 76.5806 58.3196 76.9666ZM70.304 84.3654C69.0345 84.858 71.6091 83.2685 70.304 84.3654V84.3654ZM73.0259 86.2392C72.4622 86.3916 73.036 85.8888 73.0259 86.2392V86.2392ZM73.0309 85.7466C71.6243 85.838 74.4833 84.208 73.0309 85.7466V85.7466ZM44.2989 67.5517C43.0649 65.7896 43.5321 64.9974 42.3388 63.5552C42.1102 62.4533 40.2923 59.9548 41.3993 62.6005C42.4098 64.1494 42.7095 66.5462 44.2989 67.5517ZM72.5739 85.2591C71.4821 84.5076 75.245 83.5326 72.5739 85.2591V85.2591ZM74.6102 86.0564C73.7673 85.8177 75.9509 84.9087 74.6102 86.0564V86.0564ZM47.6149 68.7552C46.6298 68.6841 48.0009 68.1865 47.6149 68.7552V68.7552ZM74.1887 85.508C75.4837 84.6752 73.8891 84.8021 73.9552 85.5841L74.1887 85.508ZM56.6286 74.4427C55.943 74.4884 56.5829 73.8791 56.6286 74.4427V74.4427ZM57.7153 75.0673C57.1821 75.174 57.3649 74.3666 57.7153 75.0673V75.0673ZM76.2657 86.0716C77.9262 84.8732 75.2602 85.8431 75.9204 86.3001L76.2657 86.0716ZM75.6259 85.7669C74.204 86.2697 76.9817 84.6345 75.6259 85.7669V85.7669ZM78.8708 87.9251C77.7688 87.7322 79.7798 87.3209 78.8708 87.9251V87.9251ZM48.4477 68.3439C49.6614 68.6181 53.3024 71.3349 51.1544 68.5318C50.0524 68.2068 50.7126 65.5154 49.5903 65.9927C50.3419 67.2521 50.2098 67.7853 48.6255 66.9931C46.6399 66.0232 47.5083 67.4705 47.8993 67.8716C47.3712 67.9986 48.6052 68.3337 48.4477 68.3439ZM42.9126 63.9716C43.1309 63.0728 40.9067 59.0205 41.8614 61.9404C42.2067 62.5548 42.1712 63.7126 42.9126 63.9716ZM53.0739 70.238C52.4493 69.715 53.0434 70.1619 53.0739 70.238V70.238ZM54.6126 70.5986C52.9114 70.2076 54.6126 69.6439 54.6126 70.5986V70.5986ZM67.968 79.013C66.9626 79.0029 67.7141 78.363 67.968 79.013V79.013ZM68.6079 79.4853C68.2423 79.5564 68.5165 79.1197 68.6079 79.4853V79.4853ZM73.9044 82.8166C73.2696 82.7709 74.4122 82.4408 73.9044 82.8166V82.8166ZM45.6751 64.6775C44.1161 64.2763 47.1325 64.1138 45.6751 64.6775V64.6775ZM66.795 77.9822C65.8657 78.2158 66.7747 77.0377 66.795 77.9822V77.9822ZM45.1013 63.3369C44.2329 63.1287 46.0356 63.022 45.1013 63.3369V63.3369ZM47.813 64.6521C47.5286 64.7689 47.7977 64.3423 47.813 64.6521V64.6521ZM80.9325 84.9595C82.136 84.7158 84.8782 85.574 85.32 84.6396C83.8575 84.6041 80.2673 83.6087 80.0997 84.8732L80.4196 84.924L80.9325 84.9595ZM48.6763 64.8705C47.9348 64.8349 48.7016 63.9158 48.6763 64.8705V64.8705ZM41.5415 59.9193C40.3075 59.6451 41.2165 58.1013 41.5415 59.9193V59.9193ZM43.2427 60.3459C41.6837 59.8228 43.263 59.7619 43.2427 60.3459V60.3459ZM44.2126 60.8232C43.9333 60.5998 43.9942 61.1126 44.2126 60.8232V60.8232ZM50.3368 64.7486C49.6513 64.5556 50.6263 64.4845 50.3368 64.7486V64.7486ZM43.5677 59.7466C41.5973 59.5435 43.4001 58.3705 43.5677 59.7466V59.7466ZM40.079 57.4818C39.7388 57.7205 40.0282 56.847 40.079 57.4818V57.4818ZM40.597 57.0908C40.1501 57.1873 40.5106 56.3392 40.597 57.0908V57.0908ZM43.4661 58.8021C44.6798 58.3248 41.2571 57.8169 43.2173 58.7107L43.4661 58.8021ZM81.8516 82.5119C80.8665 82.2935 82.6286 81.8009 81.8516 82.5119V82.5119ZM86.488 84.9189C85.7059 85.0357 86.7977 83.9998 86.488 84.9189V84.9189ZM43.7555 57.299C42.7958 57.4767 43.8876 56.4103 43.7555 57.299V57.299ZM39.6778 54.5669C39.4595 53.3126 39.4899 51.1037 41.5872 51.8501C38.7891 52.4087 43.527 55.3287 42.9278 53.0232C44.1059 53.0791 45.2282 52.3275 44.6138 53.4701C46.9345 53.2162 48.5391 51.2052 50.7786 51.4845C52.5255 51.2509 54.4298 51.0783 56.3087 50.3775C57.8524 50.2658 59.3403 48.6001 58.4973 47.615C56.3899 47.4373 54.1809 47.7013 51.8552 48.1634C49.2755 48.7017 46.9294 49.7173 44.3243 50.1591C41.7852 50.4994 44.8321 51.0986 44.1059 51.2306C42.7805 51.6876 45.6852 52.0025 43.9333 52.4849C42.8516 52.2767 41.7243 51.906 42.1864 50.7685C39.754 51.0834 37.6161 52.0939 39.5407 54.5669H39.6778ZM45.538 51.581C46.1067 49.4787 48.5899 53.3076 46.4723 51.8603C46.2184 51.6673 45.802 51.515 45.538 51.581ZM45.6497 50.5603C46.0864 50.9056 46.4723 49.9509 45.6497 50.5603V50.5603ZM46.6958 50.5806C46.772 49.6158 49.0876 51.0935 47.0766 50.9259L46.6958 50.5806ZM48.1227 50.0017C48.2751 50.5451 48.6458 49.3923 48.1227 50.0017V50.0017ZM48.4884 49.758C49.3567 48.7119 53.4091 49.0927 50.4434 49.6564C49.6513 49.0572 49.0419 50.0119 48.4884 49.758ZM53.7798 48.9455C53.6477 46.0916 56.4102 49.956 53.7798 48.9455V48.9455ZM55.2829 48.9353C55.8313 47.4982 57.4157 48.3564 55.5368 48.6459C55.5774 48.7982 55.4809 49.3873 55.2829 48.9353ZM43.1665 56.5626C41.4247 55.6892 44.8067 55.5572 43.1665 56.5626V56.5626ZM44.3802 56.8978C43.1309 56.649 44.954 56.2884 44.3802 56.8978V56.8978ZM40.8052 54.3638C39.6981 54.0896 41.7446 53.6427 40.8052 54.3638V54.3638ZM89.2251 84.6548C88.5091 85.0306 89.2505 83.8169 89.2251 84.6548V84.6548ZM84.3044 81.2982C83.6747 81.3794 84.4466 80.3334 84.3044 81.2982V81.2982ZM90.5809 84.9798C91.8911 84.9849 94.552 84.5736 91.6981 84.5736C91.2512 84.6396 89.093 84.6294 90.5809 84.9798ZM45.4466 56.3087C46.5079 56.2376 47.1071 55.1408 45.2384 55.2017C42.3489 54.9021 47.7876 56.1919 44.8677 55.8212C44.4766 56.0802 45.4212 56.3798 45.4466 56.3087ZM46.3809 56.781C46.0509 57.1416 46.2692 56.1005 46.3809 56.781V56.781ZM47.488 53.8255C46.8481 53.6732 47.945 53.2568 47.488 53.8255V53.8255ZM43.9587 47.9349C45.8528 47.29 48.4376 46.5689 49.3313 48.2498C48.4223 47.158 48.9657 46.0763 49.8239 47.681C51.0376 49.3009 51.647 46.9447 50.8548 46.4013C51.7536 47.5185 52.7794 48.0466 51.4591 46.4724C52.8962 44.7459 48.5848 46.7009 47.6048 46.6806C47.1376 46.8888 42.7399 47.7978 43.9587 47.9349ZM45.0708 45.8123C46.1524 44.9998 48.8032 46.2998 47.102 45.0048C46.9345 44.8525 43.3696 45.9849 45.0708 45.8123ZM49.0063 45.9748C50.2708 46.0052 48.463 44.2787 49.9661 45.0607C49.7173 44.2533 48.2141 44.1009 47.4778 43.781C47.0614 44.5173 48.3208 45.9849 49.0063 45.9748ZM45.7614 42.3998C44.9946 42.7044 46.1981 41.8107 45.7614 42.3998V42.3998ZM47.3661 42.7857C49.4024 42.5166 46.8481 41.9123 46.9548 42.7654L47.3661 42.7857ZM44.3649 40.4396C42.9329 38.5658 47.0614 40.7544 45.604 38.7943C44.3802 37.8193 43.202 39.8912 44.3649 40.4396ZM62.7528 50.3419C63.4079 49.1791 60.0411 48.7728 62.311 49.9306C62.5243 50.0017 62.4735 50.4232 62.7528 50.3419Z" fill="white"/>
</g>
</g>
<defs>
<filter id="filter0_d_290_189" x="33.7109" y="38.293" width="64.4004" height="58.3177" filterUnits="userSpaceOnUse" color-interpolation-filters="sRGB">
<feFlood flood-opacity="0" result="BackgroundImageFix"/>
<feColorMatrix in="SourceAlpha" type="matrix" values="0 0 0 0 0 0 0 0 0 0 0 0 0 0 0 0 0 0 127 0" result="hardAlpha"/>
<feOffset dy="4"/>
<feGaussianBlur stdDeviation="2"/>
<feComposite in2="hardAlpha" operator="out"/>
<feColorMatrix type="matrix" values="0 0 0 0 0 0 0 0 0 0 0 0 0 0 0 0 0 0 0.25 0"/>
<feBlend mode="normal" in2="BackgroundImageFix" result="effect1_dropShadow_290_189"/>
<feBlend mode="normal" in="SourceGraphic" in2="effect1_dropShadow_290_189" result="shape"/>
</filter>
<clipPath id="clip0_290_189">
<rect width="65" height="65" fill="white" transform="translate(32 32)"/>
</clipPath>
</defs>
</svg>
