<svg width="128" height="128" viewBox="0 0 128 128" fill="none" xmlns="http://www.w3.org/2000/svg">
<circle cx="64" cy="64" r="64" fill="#19216F"/>
<g clipPath="url(#clip0_290_174)">
<g filter="url(#filter0_d_290_174)">
<path d="M75.8688 41.2687L76.0438 41.3687C73.675 42.6187 66.9063 46.65 66.9063 51.7812C66.9063 53.5125 67.8969 55.1812 68.825 56.75C69.6438 58.1312 70.4157 59.4312 70.4157 60.6187C70.4157 63.6094 67.5 65.9312 65.8532 67L65.5407 66.8187C66.1625 66.0594 66.9282 64.7875 66.9282 63.4312C66.9282 61.5625 65.9688 60.0687 64.9969 58.5531C63.9907 56.9875 62.9719 55.3969 62.9719 53.3344C62.9719 46.1719 72.7063 42.3281 75.8688 41.2687ZM63.0719 45.0562C66.9875 41.5562 71.2657 37.7312 71.2657 31.9781C71.2657 29.375 70.2 27.7125 69.6719 27.0469L69.5 27.1437C69.625 27.6625 69.8125 28.6187 69.8125 29.8687C69.8125 35.1062 65.3688 38.775 61.0688 42.3312C57.0344 45.6687 53.125 48.9 53.125 53.225C53.125 59.4281 59.2438 63.2437 61.8282 64.8562L62.025 64.9812L62.1813 64.8875C62.0417 64.7333 61.8938 64.575 61.7375 64.4125C59.75 62.2969 56.7313 59.0875 56.7313 54.1781C56.7313 50.7312 59.7719 48.0094 63.0719 45.0562ZM61.6625 76.0187C67.175 76.0187 71.0313 75.2281 72.7438 74.7437L75.3438 76.2437C72.8657 77.5031 67.3719 78.4625 61.65 78.4625C54.9219 78.4625 47.5657 77.0187 47.5438 75.0937C47.5282 74.0312 49.9344 73.325 52.5282 72.8687L52.6844 72.9594C52.6844 72.9594 51.8063 73.275 51.8157 74C51.8282 75.0937 56.2532 76.0187 61.6594 76.0187M50.6313 82.8031C50.6313 81.5312 53.2532 80.9281 54.4532 80.6875L54.6094 80.7812C54.4032 80.9344 54.2907 81.1437 54.2907 81.3219C54.2907 82.1562 57.1969 82.9187 61.6532 82.9187C65.6469 82.9187 67.8657 82.4281 69.1844 82.1125L72.2782 83.9031C72.1375 84.0031 69.0907 85.9187 61.6469 85.9187C56.2375 85.9187 50.6313 84.5687 50.6313 82.8031ZM77.2844 77.4031C80.9719 75.3 84.6625 72.8125 84.8719 68.8187C85.0094 66.1969 82.6 64.275 79.9657 64.7875L80.1063 64.4375V64.4312C80.7688 64.2312 81.5875 64.0687 82.5032 64.0687C85.45 64.0687 87.7094 65.8344 87.9969 68.3062C88.5782 73.2625 81.5532 76.4875 77.6188 77.5969L77.2844 77.4031ZM83.4563 86.7406C83.4875 90.1469 71.9 92.1719 61.5438 92.2625C52.6032 92.3406 38.1875 90.6531 38.1563 87.2469C38.1375 84.8937 44.4063 83.2656 47.8125 82.7969L48.1719 83C48.1719 83 43.0938 84.1781 43.1094 86.3187C43.1282 88.4531 53.8125 90.3 61.5282 90.2344C73.4813 90.1281 81.5719 88.1812 82.5282 85.5406L82.6969 85.4437C83.0469 85.7 83.4469 86.1219 83.4563 86.7406ZM47.0938 93.6781C51.5155 94.3846 55.988 94.7243 60.4657 94.6937C79.8657 94.525 85.3407 89.7562 86.1844 88.7187L86.3313 88.8062C86.1313 92.5812 75.8719 95.7187 63.2188 95.8281C56.7782 95.8844 50.9157 95.1406 46.7032 93.9062L47.0938 93.6781ZM55.225 64.6687C51.8532 64.9281 44.6125 66 44.6125 67.9062C44.6125 69.35 51.25 71.3844 61.65 71.3844C71.0063 71.3844 76.9125 69.6187 78.2907 68.9469L76.2813 67.775C74.8438 68.1656 69.5032 69.3562 61.65 69.3562C57.025 69.3562 49.0563 68.5031 49.0563 67.2C49.0563 66.0312 54.0282 65.1312 55.4563 64.8719L55.5469 64.8562L55.225 64.6687Z" fill="white"/>
</g>
</g>
<defs>
<filter id="filter0_d_290_174" x="34.1562" y="27.0469" width="57.875" height="76.7842" filterUnits="userSpaceOnUse" color-interpolation-filters="sRGB">
<feFlood flood-opacity="0" result="BackgroundImageFix"/>
<feColorMatrix in="SourceAlpha" type="matrix" values="0 0 0 0 0 0 0 0 0 0 0 0 0 0 0 0 0 0 127 0" result="hardAlpha"/>
<feOffset dy="4"/>
<feGaussianBlur stdDeviation="2"/>
<feComposite in2="hardAlpha" operator="out"/>
<feColorMatrix type="matrix" values="0 0 0 0 0 0 0 0 0 0 0 0 0 0 0 0 0 0 0.25 0"/>
<feBlend mode="normal" in2="BackgroundImageFix" result="effect1_dropShadow_290_174"/>
<feBlend mode="normal" in="SourceGraphic" in2="effect1_dropShadow_290_174" result="shape"/>
</filter>
<clipPath id="clip0_290_174">
<rect width="75" height="75" fill="white" transform="translate(27 27)"/>
</clipPath>
</defs>
</svg>
