<svg width="128" height="128" viewBox="0 0 128 128" fill="none" xmlns="http://www.w3.org/2000/svg">
<circle cx="64" cy="64" r="64" fill="#0C1BAA"/>
<g clipPath="url(#clip0_543_5408)">
<g filter="url(#filter0_d_543_5408)">
<path d="M74.7096 72.6502C72.9126 75.19 70.9554 77.6137 68.8497 79.9068C74.4614 85.3217 79.6773 87.8574 82.572 86.1925C85.4668 84.531 85.8659 78.7691 83.9573 71.2323C81.0961 71.8662 77.9901 72.35 74.7096 72.6502ZM70.3155 72.9372C67.7729 73.04 65.2271 73.04 62.6845 72.9372C63.9457 74.5786 65.2271 76.1 66.4983 77.4846C67.7752 76.0989 69.0476 74.5853 70.3155 72.9372ZM87.2211 46.5966C96.1602 49.1456 102 53.3827 102 58.4974C102 63.612 96.1636 67.8492 87.2244 70.3982C89.4718 79.373 88.7003 86.5195 84.2492 89.0751C79.798 91.6341 73.1901 88.7248 66.4983 82.299C59.8099 88.7215 53.202 91.6341 48.7508 89.0751C44.2997 86.5162 43.5282 79.373 45.7756 70.3982C36.8364 67.8559 31 63.6187 31 58.5041C31 53.3894 36.8364 49.1522 45.7756 46.6033C43.5282 37.6284 44.2997 30.482 48.7508 27.923C53.202 25.3673 59.8099 28.2766 66.4983 34.7024C73.1901 28.2766 79.798 25.3673 84.2492 27.923C88.7003 30.482 89.4718 37.6284 87.2244 46.6033M83.9607 45.7758C85.8726 38.2357 85.4701 32.4771 82.5754 30.8122C79.6806 29.1507 74.4647 31.6864 68.8564 37.1013C70.9609 39.3945 72.917 41.8182 74.713 44.3579C77.9934 44.6582 81.0995 45.1386 83.9607 45.7758ZM49.0427 71.2323C47.1341 78.7725 47.5332 84.531 50.4313 86.1925C53.3261 87.854 58.542 85.3217 64.1503 79.9068C62.0457 77.6125 60.0896 75.1877 58.2938 72.6469C55.1841 72.3693 52.0953 71.8957 49.046 71.2289M62.6912 44.0643C65.2338 43.9615 67.7796 43.9615 70.3222 44.0643C69.1126 42.4966 67.8368 40.9805 66.4983 39.5202C65.2237 40.9103 63.9524 42.4272 62.6845 44.071M58.2904 44.3612C60.0863 41.8216 62.0424 39.3978 64.147 37.1046C58.5386 31.6864 53.3227 29.1507 50.4313 30.8122C47.5366 32.4771 47.1341 38.239 49.046 45.7758C51.9072 45.1419 55.0133 44.6615 58.2938 44.3579M72.8513 69.4473C75.2399 65.9619 77.3634 62.304 79.2043 58.5041C77.3645 54.7042 75.2421 51.0463 72.8547 47.5608C68.6264 47.2464 64.3803 47.2464 60.152 47.5608C57.7623 51.0461 55.6377 54.704 53.7957 58.5041C55.6366 62.304 57.7601 65.9619 60.1487 69.4473C64.377 69.7617 68.623 69.7617 72.8513 69.4473ZM77.1616 69.0069C79.2278 68.74 81.1845 68.403 83.0316 67.996C82.4264 66.1141 81.7415 64.2586 80.9787 62.4343C79.7975 64.6756 78.5252 66.8683 77.1649 69.0069M55.8418 47.9979C53.7755 48.267 51.8189 48.6051 49.9718 49.0121C50.542 50.8048 51.2274 52.6587 52.028 54.5738C53.2092 52.3325 54.4815 50.1398 55.8418 48.0012M49.9718 67.9993C51.8189 68.4042 53.7755 68.7411 55.8418 69.0103C54.4815 66.8717 53.2092 64.679 52.028 62.4376C51.264 64.2619 50.578 66.1174 49.9718 67.9993ZM46.6913 67.1819C47.5701 64.3994 48.7039 61.4834 50.0791 58.5074C48.7665 55.6901 47.635 52.7927 46.6913 49.8328C39.1744 51.9548 34.3576 55.1844 34.3576 58.5074C34.3576 61.8304 39.1744 65.0567 46.6913 67.1819ZM83.0349 49.0121C81.1856 48.6051 79.2289 48.267 77.1649 47.9979C78.5252 50.1364 79.7975 52.3291 80.9787 54.5705C81.7771 52.6576 82.4625 50.8048 83.0349 49.0121ZM86.312 49.8295C85.4399 52.612 84.2995 55.528 82.9242 58.5041C84.2995 61.4801 85.4399 64.3961 86.312 67.1786C93.8323 65.0533 98.6491 61.8271 98.6491 58.5041C98.6491 55.181 93.8323 51.9548 86.312 49.8295ZM66.4983 64.7731C65.6533 64.8005 64.8114 64.6586 64.0227 64.3559C63.2339 64.0532 62.5144 63.5959 61.9069 63.011C61.2995 62.4262 60.8164 61.7258 60.4865 60.9516C60.1566 60.1773 59.9866 59.345 59.9866 58.5041C59.9866 57.6631 60.1566 56.8308 60.4865 56.0566C60.8164 55.2823 61.2995 54.5819 61.9069 53.9971C62.5144 53.4122 63.2339 52.9549 64.0227 52.6522C64.8114 52.3495 65.6533 52.2076 66.4983 52.235C68.1343 52.2881 69.6854 52.9719 70.8238 54.1417C71.9622 55.3116 72.5987 56.8759 72.5987 58.5041C72.5987 60.1322 71.9622 61.6965 70.8238 62.8664C69.6854 64.0362 68.1343 64.72 66.4983 64.7731Z" fill="white"/>
</g>
</g>
<defs>
<filter id="filter0_d_543_5408" x="27" y="27" width="79" height="71" filterUnits="userSpaceOnUse" color-interpolation-filters="sRGB">
<feFlood flood-opacity="0" result="BackgroundImageFix"/>
<feColorMatrix in="SourceAlpha" type="matrix" values="0 0 0 0 0 0 0 0 0 0 0 0 0 0 0 0 0 0 127 0" result="hardAlpha"/>
<feOffset dy="4"/>
<feGaussianBlur stdDeviation="2"/>
<feComposite in2="hardAlpha" operator="out"/>
<feColorMatrix type="matrix" values="0 0 0 0 0 0 0 0 0 0 0 0 0 0 0 0 0 0 0.25 0"/>
<feBlend mode="normal" in2="BackgroundImageFix" result="effect1_dropShadow_543_5408"/>
<feBlend mode="normal" in="SourceGraphic" in2="effect1_dropShadow_543_5408" result="shape"/>
</filter>
<clipPath id="clip0_543_5408">
<rect width="75" height="75" fill="white" transform="translate(27 27)"/>
</clipPath>
</defs>
</svg>
