<svg width="128" height="128" viewBox="0 0 128 128" fill="none" xmlns="http://www.w3.org/2000/svg">
<circle cx="64" cy="64" r="64" fill="#19216F"/>
<g clipPath="url(#clip0_290_185)">
<g filter="url(#filter0_d_290_185)">
<path d="M77.215 36.5025C76.87 36.5025 76.636 36.5445 76.393 36.6015V36.6405H76.435C76.597 36.9525 76.873 37.1805 77.077 37.4595C77.239 37.7805 77.377 38.1015 77.539 38.4195L77.581 38.3745C77.863 38.1765 78.001 37.8585 78.001 37.3755C77.881 37.2345 77.863 37.0935 77.761 36.9555C77.641 36.7545 77.383 36.6555 77.221 36.4965L77.215 36.5025ZM45.31 76.0845H42.529C42.4502 71.6649 42.18 67.2508 41.719 62.8545H41.695L37.465 76.0845H35.35L31.15 62.8545H31.12C30.7917 67.2576 30.5966 71.6696 30.535 76.0845H28C28.166 70.1845 28.576 64.6545 29.23 59.4945H32.68L36.685 71.6865H36.709L40.75 59.4945H44.035C44.761 65.5425 45.189 71.0725 45.319 76.0845H45.31ZM57.361 63.8445C56.227 69.9825 54.735 74.4425 52.885 77.2245C51.439 79.3725 49.856 80.4455 48.136 80.4435C47.68 80.4435 47.114 80.3055 46.438 80.0295V78.5475C46.77 78.5995 47.156 78.6255 47.596 78.6255C48.4 78.6255 49.047 78.4035 49.537 77.9595C50.127 77.4195 50.422 76.8145 50.422 76.1445C50.422 75.6785 50.192 74.7345 49.732 73.3125L46.69 63.8445H49.42L51.601 70.9245C52.095 72.5325 52.3 73.6555 52.216 74.2935C53.416 71.0975 54.251 67.6145 54.721 63.8445H57.361ZM94.336 76.0845H86.446V59.4945H89.101V74.0445H94.336V76.0845ZM84.376 76.4895L81.328 74.9895C81.6 74.7635 81.855 74.5135 82.093 74.2395C83.391 72.7195 84.039 70.4665 84.037 67.4805C84.037 61.9905 81.882 59.2445 77.572 59.2425C75.46 59.2425 73.81 59.9395 72.622 61.3335C71.33 62.8575 70.684 65.1025 70.684 68.0685C70.682 70.9865 71.256 73.1265 72.406 74.4885C73.454 75.7185 75.037 76.3335 77.155 76.3335C77.947 76.3335 78.672 76.2355 79.33 76.0395L83.305 78.3555L84.385 76.4895H84.376ZM74.5 72.7635C73.826 71.6815 73.489 69.9455 73.489 67.5555C73.489 63.3755 74.759 61.2855 77.299 61.2855C78.631 61.2855 79.608 61.7855 80.23 62.7855C80.902 63.8715 81.238 65.5945 81.238 67.9545C81.238 72.1685 79.968 74.2765 77.428 74.2785C76.094 74.2785 75.116 73.7785 74.494 72.7785L74.5 72.7635ZM69.526 71.4885C69.526 72.9005 69.01 74.0565 67.978 74.9565C66.95 75.8565 65.566 76.3065 63.826 76.3065C62.197 76.3065 60.634 75.7905 59.107 74.7615L59.818 73.3335C61.13 73.9915 62.32 74.3195 63.388 74.3175C64.384 74.3175 65.167 74.0975 65.737 73.6575C66.0226 73.4434 66.2532 73.1645 66.4097 72.8436C66.5662 72.5228 66.6441 72.1694 66.637 71.8125C66.637 70.8225 65.947 69.9825 64.693 69.2775C63.529 68.6385 61.204 67.3065 61.204 67.3065C59.938 66.3855 59.308 65.3985 59.308 63.7755C59.308 62.4275 59.778 61.3425 60.718 60.5205C61.66 59.6885 62.88 59.2735 64.378 59.2755C65.916 59.2755 67.316 59.6855 68.578 60.5055L67.939 61.9335C66.9329 61.4892 65.8468 61.2544 64.747 61.2435C63.897 61.2435 63.243 61.4495 62.785 61.8615C62.5544 62.0539 62.3684 62.2941 62.2399 62.5656C62.1114 62.8371 62.0436 63.1332 62.041 63.4335C62.041 64.4175 62.743 65.2635 64.039 65.9835C65.218 66.6285 67.6 67.9935 67.6 67.9935C68.899 68.9085 69.544 69.8835 69.544 71.4975L69.526 71.4885ZM97.672 53.9325C96.067 53.8905 94.822 54.0525 93.781 54.4965C93.481 54.6165 93.001 54.6165 92.959 54.9975C93.124 55.1565 93.148 55.4175 93.289 55.6395C93.529 56.0415 93.943 56.5785 94.327 56.8605C94.743 57.1945 95.17 57.5045 95.608 57.7905C96.388 58.2705 97.273 58.5555 98.038 59.0385C98.473 59.3205 98.917 59.6775 99.358 59.9775C99.577 60.1275 99.718 60.3975 100 60.4935V60.4335C99.862 60.2535 99.82 59.9925 99.685 59.7915C99.484 59.5905 99.283 59.4105 99.085 59.2125C98.4968 58.4356 97.7937 57.7528 97 57.1875C96.358 56.7495 94.954 56.1375 94.69 55.4025L94.651 55.3605C95.089 55.3215 95.611 55.1625 96.031 55.0425C96.712 54.8625 97.336 54.9015 98.041 54.7245C98.361 54.6405 98.681 54.5465 99.001 54.4425V54.2625C98.641 53.9025 98.371 53.4135 97.999 53.0775C96.9597 52.1712 95.8524 51.3457 94.687 50.6085C94.057 50.2065 93.259 49.9485 92.596 49.6065C92.356 49.4865 91.954 49.4265 91.816 49.2255C91.456 48.7875 91.246 48.2055 90.991 47.6835C90.4026 46.5404 89.8553 45.3767 89.35 44.1945C88.99 43.4085 88.771 42.6255 88.33 41.9055C86.26 38.4945 84.019 36.4275 80.572 34.4055C79.831 33.9855 78.943 33.8055 78.004 33.5835C77.503 33.5595 77.002 33.5235 76.504 33.5025C76.174 33.3615 75.856 32.9805 75.574 32.7975C74.434 32.0775 71.482 30.5175 70.642 32.5815C70.102 33.8835 71.443 35.1675 71.908 35.8275C72.253 36.2865 72.688 36.8115 72.928 37.3275C73.069 37.6755 73.108 38.0325 73.249 38.3955C73.567 39.2775 73.87 40.2615 74.29 41.0865C74.509 41.5065 74.749 41.9475 75.031 42.3255C75.193 42.5445 75.469 42.6465 75.532 43.0065C75.25 43.4145 75.232 44.0085 75.07 44.5065C74.35 46.7775 74.632 49.5855 75.652 51.2565C75.973 51.7545 76.738 52.8585 77.761 52.4355C78.661 52.0755 78.463 50.9355 78.721 49.9305C78.781 49.6905 78.742 49.5315 78.865 49.3695V49.4145C79.147 49.9785 79.429 50.5155 79.687 51.0795C80.305 52.0635 81.385 53.0835 82.288 53.7645C82.768 54.1245 83.149 54.7485 83.749 54.9705V54.9105H83.704C83.575 54.7365 83.404 54.6525 83.242 54.5115C82.8621 54.1387 82.5111 53.7376 82.192 53.3115C81.3493 52.1548 80.6 50.933 79.951 49.6575C79.621 49.0275 79.345 48.3495 79.081 47.7285C78.961 47.4885 78.961 47.1285 78.76 47.0085C78.46 47.4465 78.019 47.8275 77.8 48.3675C77.419 49.2315 77.38 50.2935 77.236 51.3975C77.155 51.4185 77.194 51.3975 77.155 51.4395C76.513 51.2835 76.294 50.6175 76.054 50.0595C75.454 48.6345 75.355 46.3455 75.874 44.7045C76.015 44.2845 76.615 42.9585 76.375 42.5565C76.249 42.1755 75.853 41.9565 75.634 41.6475C75.3526 41.2451 75.1115 40.8161 74.914 40.3665C74.434 39.2445 74.194 38.0025 73.672 36.8805C73.432 36.3615 73.012 35.8185 72.67 35.3415C72.289 34.8015 71.869 34.4205 71.566 33.7815C71.467 33.5625 71.326 33.1995 71.485 32.9595C71.527 32.7975 71.611 32.7345 71.767 32.6895C72.031 32.4735 72.772 32.7555 73.033 32.8755C73.774 33.1755 74.398 33.4575 75.019 33.8775C75.301 34.0755 75.604 34.4565 75.964 34.5555H76.384C77.026 34.6965 77.749 34.5975 78.349 34.7745C79.414 35.1165 80.374 35.6145 81.235 36.1545C83.8883 37.8489 86.0462 40.2149 87.49 43.0125C87.73 43.4745 87.835 43.8975 88.054 44.3775C88.474 45.3675 88.993 46.3665 89.419 47.3235C89.839 48.2685 90.244 49.2315 90.847 50.0145C91.147 50.4345 92.353 50.6535 92.893 50.8725C93.292 51.0525 93.913 51.2175 94.273 51.4365C94.963 51.8565 95.635 52.3365 96.283 52.7985C96.613 53.0265 97.612 53.5275 97.672 53.9325Z" fill="white"/>
</g>
</g>
<defs>
<filter id="filter0_d_290_185" x="24" y="31.5527" width="80" height="56.8907" filterUnits="userSpaceOnUse" color-interpolation-filters="sRGB">
<feFlood flood-opacity="0" result="BackgroundImageFix"/>
<feColorMatrix in="SourceAlpha" type="matrix" values="0 0 0 0 0 0 0 0 0 0 0 0 0 0 0 0 0 0 127 0" result="hardAlpha"/>
<feOffset dy="4"/>
<feGaussianBlur stdDeviation="2"/>
<feComposite in2="hardAlpha" operator="out"/>
<feColorMatrix type="matrix" values="0 0 0 0 0 0 0 0 0 0 0 0 0 0 0 0 0 0 0.25 0"/>
<feBlend mode="normal" in2="BackgroundImageFix" result="effect1_dropShadow_290_185"/>
<feBlend mode="normal" in="SourceGraphic" in2="effect1_dropShadow_290_185" result="shape"/>
</filter>
<clipPath id="clip0_290_185">
<rect width="72" height="72" fill="white" transform="translate(28 20)"/>
</clipPath>
</defs>
</svg>
