<svg width="34" height="29" viewBox="0 0 34 29" fill="none" xmlns="http://www.w3.org/2000/svg">
<path d="M26.2637 12.5029C26.7174 13.3084 27.055 14.1476 27.2764 15.0203C27.4977 15.8929 27.6139 16.7936 27.625 17.7222V19.4508L17 24.838L6.375 19.4508C6.375 18.7795 6.38053 18.153 6.3916 17.5712C6.40267 16.9894 6.45247 16.4244 6.54102 15.8762C6.62956 15.3279 6.76237 14.7797 6.93945 14.2315C7.11654 13.6833 7.38216 13.1071 7.73633 12.5029L4.25 10.7407V20.592C4.57096 20.7039 4.85872 20.8605 5.11328 21.0619C5.36784 21.2633 5.59473 21.4983 5.79395 21.7668C5.99316 22.0353 6.13704 22.3262 6.22559 22.6395C6.31413 22.9527 6.36393 23.2828 6.375 23.6296V29H0V23.6296C0 23.294 0.0498047 22.9695 0.149414 22.6562C0.249023 22.343 0.392904 22.0465 0.581055 21.7668C0.769206 21.4871 0.99056 21.2521 1.24512 21.0619C1.49967 20.8717 1.79297 20.7151 2.125 20.592V9.66667L0 8.59259L17 0L34 8.59259L26.2637 12.5029ZM4.25 23.6296C4.25 23.3387 4.14486 23.087 3.93457 22.8744C3.72428 22.6618 3.47526 22.5556 3.1875 22.5556C2.89974 22.5556 2.65072 22.6618 2.44043 22.8744C2.23014 23.087 2.125 23.3387 2.125 23.6296V26.8519H4.25V23.6296ZM4.74805 8.59259L17 14.7853L29.252 8.59259L17 2.39988L4.74805 8.59259ZM25.5 18.125C25.5 17.2635 25.417 16.4635 25.251 15.7251C25.085 14.9867 24.7917 14.2315 24.3711 13.4595L17 17.1852L9.62891 13.4595C9.26367 14.1084 8.98698 14.7909 8.79883 15.5069C8.61068 16.223 8.51107 16.9614 8.5 17.7222V18.125L17 22.4213L25.5 18.125Z" fill="#1B29AF"/>
</svg>
