<svg width="26" height="26" viewBox="0 0 26 26" fill="none" xmlns="http://www.w3.org/2000/svg">
<path d="M12.2351 0H13.7611C13.8349 0.0145996 13.908 0.0323732 13.9824 0.043799C14.6914 0.153613 15.4124 0.213282 16.1074 0.379591C22.7839 1.97983 27.0752 8.68486 25.7685 15.4343C25.2675 18.0223 24.095 20.2585 22.2427 22.1324C20.3002 24.0944 17.966 25.3297 15.2395 25.8C14.7499 25.8845 14.2539 25.934 13.7611 26H12.2351C11.8923 25.9587 11.5483 25.9245 11.2069 25.873C8.64377 25.5106 6.37823 24.4867 4.43888 22.7735C2.15427 20.7556 0.725508 18.2444 0.199658 15.2337C0.114454 14.745 0.0654928 14.2505 0 13.7585V12.2351C0.0152605 12.1456 0.0343362 12.0567 0.0464174 11.9666C0.110003 11.4975 0.144339 11.024 0.232722 10.56C0.698476 8.02345 1.92697 5.68868 3.75471 3.86636C5.69724 1.90493 8.03081 0.670313 10.7567 0.199952C11.2463 0.115528 11.7423 0.0660156 12.2351 0ZM9.91357 14.2695C6.92507 12.1202 6.96195 8.2875 8.87713 6.14453C10.9004 3.88286 14.3079 3.62388 16.5353 5.57007C17.7435 6.62632 18.4156 7.95742 18.4537 9.56338C18.5008 11.5312 17.6659 13.0813 16.082 14.2606C18.9656 15.4299 20.8165 17.4979 21.6648 20.4667C25.3292 16.3871 25.7781 9.1876 20.739 4.54556C19.5905 3.48248 18.2348 2.66715 16.7565 2.15045C15.2783 1.63375 13.7093 1.42678 12.1473 1.54246C10.5854 1.65813 9.0641 2.09396 7.67842 2.82276C6.29274 3.55155 5.07242 4.55765 4.09362 5.77827C-0.0693077 10.9262 1.42304 17.3945 4.33524 20.4452C5.17711 17.484 7.03888 15.4388 9.91357 14.2695ZM13.199 24.4772C13.4693 24.455 13.962 24.4321 14.4459 24.3718C16.6142 24.1027 18.5395 23.2572 20.2322 21.8835C20.2624 21.8541 20.286 21.8185 20.3014 21.7792C20.3167 21.7399 20.3235 21.6978 20.3212 21.6557C19.789 17.5576 15.8817 14.6732 11.8008 15.3575C10.2405 15.6161 8.80396 16.3659 7.70085 17.4974C6.59775 18.6288 5.8859 20.0828 5.66926 21.6468C5.66867 21.6963 5.67876 21.7453 5.69884 21.7905C5.71891 21.8357 5.74851 21.8761 5.78562 21.9089C7.88965 23.5949 10.2906 24.4397 13.199 24.4772ZM12.9911 13.6817C15.153 13.6894 16.9238 11.933 16.9461 9.75571C16.969 7.59751 15.1759 5.79414 13.0038 5.7897C10.8317 5.78525 9.03928 7.5772 9.04691 9.74429C9.05126 10.7872 9.4682 11.7862 10.2069 12.5237C10.9457 13.2612 11.9464 13.6774 12.9911 13.6817Z" fill="#0C1BAA"/>
</svg>
